<svg width="78" height="78" viewBox="0 0 78 78" fill="none" xmlns="http://www.w3.org/2000/svg">
<path d="M78 39C78 60.5391 60.5391 78 39 78C17.4609 78 0 60.5391 0 39C0 17.4609 17.4609 0 39 0C60.5391 0 78 17.4609 78 39Z" fill="url(#paint0_linear_902_2)"/>
<mask id="mask0_902_2" style="mask-type:alpha" maskUnits="userSpaceOnUse" x="0" y="0" width="78" height="78">
<path d="M78 39C78 60.5391 60.5391 78 39 78C17.4609 78 0 60.5391 0 39C0 17.4609 17.4609 0 39 0C60.5391 0 78 17.4609 78 39Z" fill="white"/>
</mask>
<g mask="url(#mask0_902_2)">
<path fill-rule="evenodd" clip-rule="evenodd" d="M37.2954 17.8645V-9.30971H39.0567V17.8645H37.2954Z" fill="white"/>
<path fill-rule="evenodd" clip-rule="evenodd" d="M33.2695 17.8645V-9.30971H35.0308V17.8645H33.2695Z" fill="white"/>
<path fill-rule="evenodd" clip-rule="evenodd" d="M42.5793 17.8645V-9.30971H44.3406V17.8645H42.5793Z" fill="white"/>
<path fill-rule="evenodd" clip-rule="evenodd" d="M30.8271 -6.29034V12.4178L29.1703 12.8339L20.3594 -3.60016L21.9116 -4.43239L29.0658 8.91144V-6.29034H30.8271Z" fill="white"/>
<path fill-rule="evenodd" clip-rule="evenodd" d="M46.6741 -6.79358V11.9145L48.3309 12.3306L57.1418 -4.10339L55.5896 -4.93562L48.4354 8.4082V-6.79358H46.6741Z" fill="white"/>
<path fill-rule="evenodd" clip-rule="evenodd" d="M40.4531 63.658V90.8322H38.6918V63.658H40.4531Z" fill="white"/>
<path fill-rule="evenodd" clip-rule="evenodd" d="M44.4788 63.658V90.8322H42.7175V63.658H44.4788Z" fill="white"/>
<path fill-rule="evenodd" clip-rule="evenodd" d="M35.1692 63.658V90.8322H33.4079V63.658H35.1692Z" fill="white"/>
<path fill-rule="evenodd" clip-rule="evenodd" d="M47.1773 88.1533V69.4452L48.8341 69.029L57.645 85.4631L56.0928 86.2953L48.9386 72.9515V88.1533H47.1773Z" fill="white"/>
<path fill-rule="evenodd" clip-rule="evenodd" d="M30.8271 88.4049V69.6968L29.1703 69.2806L20.3594 85.7147L21.9116 86.5469L29.0658 73.2031V88.4049H30.8271Z" fill="white"/>
<path fill-rule="evenodd" clip-rule="evenodd" d="M15.9774 42.34H-11.1968V40.5788H15.9774V42.34Z" fill="white"/>
<path fill-rule="evenodd" clip-rule="evenodd" d="M15.9774 46.3658H-11.1968V44.6046H15.9774V46.3658Z" fill="white"/>
<path fill-rule="evenodd" clip-rule="evenodd" d="M15.9774 37.0562H-11.1968V35.2949H15.9774V37.0562Z" fill="white"/>
<path fill-rule="evenodd" clip-rule="evenodd" d="M-8.8064 48.9387H9.90171L10.3178 50.5955L-6.11621 59.4064L-6.94844 57.8541L6.39539 50.7H-8.8064V48.9387Z" fill="white"/>
<path fill-rule="evenodd" clip-rule="evenodd" d="M-7.04517 33.5948H11.6629L12.0791 31.938L-4.35498 23.1271L-5.18721 24.6794L8.15662 31.8335H-7.04517V33.5948Z" fill="white"/>
<path fill-rule="evenodd" clip-rule="evenodd" d="M61.7709 39.1825L88.9451 39.1825V40.9438L61.7709 40.9438V39.1825Z" fill="white"/>
<path fill-rule="evenodd" clip-rule="evenodd" d="M61.7709 35.1567L88.9451 35.1567V36.918L61.7709 36.918V35.1567Z" fill="white"/>
<path fill-rule="evenodd" clip-rule="evenodd" d="M61.7709 44.4664L88.9451 44.4664V46.2277L61.7709 46.2277V44.4664Z" fill="white"/>
<path fill-rule="evenodd" clip-rule="evenodd" d="M85.6372 32.5883H66.9291L66.513 30.9315L82.947 22.1206L83.7793 23.6729L70.4354 30.827L85.6372 30.827V32.5883Z" fill="white"/>
<path fill-rule="evenodd" clip-rule="evenodd" d="M86.6433 48.6871H67.9352L67.5191 50.3439L83.9531 59.1548L84.7854 57.6025L71.4415 50.4484H86.6433V48.6871Z" fill="white"/>
<path fill-rule="evenodd" clip-rule="evenodd" d="M23.8 58.068L4.58496 77.2831L3.33954 76.0376L22.5546 56.8226L23.8 58.068Z" fill="white"/>
<path fill-rule="evenodd" clip-rule="evenodd" d="M26.6467 60.9147L7.43164 80.1298L6.18622 78.8844L25.4013 59.6693L26.6467 60.9147Z" fill="white"/>
<path fill-rule="evenodd" clip-rule="evenodd" d="M20.0637 54.3318L0.848633 73.5468L-0.396787 72.3014L18.8183 53.0864L20.0637 54.3318Z" fill="white"/>
<path fill-rule="evenodd" clip-rule="evenodd" d="M11.9578 80.2897L25.1865 67.0611L26.6522 67.9384L21.2619 85.7893L19.5758 85.2801L23.9525 70.7859L13.2033 81.5351L11.9578 80.2897Z" fill="white"/>
<path fill-rule="evenodd" clip-rule="evenodd" d="M-0.44392 68.1396L12.7847 54.911L11.9074 53.4452L-5.94345 58.8356L-5.43431 60.5217L9.05994 56.1449L-1.68934 66.8942L-0.44392 68.1396Z" fill="white"/>
<path fill-rule="evenodd" clip-rule="evenodd" d="M53.9485 23.4545L73.1636 4.2394L74.409 5.48482L55.1939 24.6999L53.9485 23.4545Z" fill="white"/>
<path fill-rule="evenodd" clip-rule="evenodd" d="M51.1018 20.6077L70.3169 1.39268L71.5623 2.63811L52.3473 21.8532L51.1018 20.6077Z" fill="white"/>
<path fill-rule="evenodd" clip-rule="evenodd" d="M57.6848 27.1907L76.8999 7.97565L78.1453 9.22107L58.9303 28.4361L57.6848 27.1907Z" fill="white"/>
<path fill-rule="evenodd" clip-rule="evenodd" d="M66.3786 1.82067L53.15 15.0493L51.6842 14.172L57.0746 -3.67887L58.7607 -3.16972L54.3839 11.3245L65.1332 0.575248L66.3786 1.82067Z" fill="white"/>
<path fill-rule="evenodd" clip-rule="evenodd" d="M78.0257 12.9644L64.7971 26.193L65.6744 27.6587L83.5252 22.2684L83.0161 20.5823L68.5218 24.9591L79.2711 14.2098L78.0257 12.9644Z" fill="white"/>
<path fill-rule="evenodd" clip-rule="evenodd" d="M56.1814 55.8353L75.3965 75.0504L74.1511 76.2958L54.936 57.0807L56.1814 55.8353Z" fill="white"/>
<path fill-rule="evenodd" clip-rule="evenodd" d="M59.0281 52.9887L78.2432 72.2037L76.9977 73.4492L57.7827 54.2341L59.0281 52.9887Z" fill="white"/>
<path fill-rule="evenodd" clip-rule="evenodd" d="M52.4451 59.5716L71.6602 78.7867L70.4147 80.0321L51.1997 60.817L52.4451 59.5716Z" fill="white"/>
<path fill-rule="evenodd" clip-rule="evenodd" d="M78.5284 68.1396L65.2998 54.9109L66.177 53.4452L84.0279 58.8355L83.5188 60.5216L69.0245 56.1449L79.7738 66.8942L78.5284 68.1396Z" fill="white"/>
<path fill-rule="evenodd" clip-rule="evenodd" d="M66.6303 80.0381L53.4017 66.8095L51.9359 67.6867L57.3263 85.5376L59.0124 85.0285L54.6356 70.5342L65.3849 81.2835L66.6303 80.0381Z" fill="white"/>
<path fill-rule="evenodd" clip-rule="evenodd" d="M21.5678 25.6871L2.35278 6.47203L3.5982 5.22661L22.8133 24.4417L21.5678 25.6871Z" fill="white"/>
<path fill-rule="evenodd" clip-rule="evenodd" d="M18.7212 28.5338L-0.493896 9.3187L0.751524 8.07327L19.9666 27.2883L18.7212 28.5338Z" fill="white"/>
<path fill-rule="evenodd" clip-rule="evenodd" d="M25.3039 21.9508L6.08887 2.73575L7.33429 1.49033L26.5493 20.7054L25.3039 21.9508Z" fill="white"/>
<path fill-rule="evenodd" clip-rule="evenodd" d="M0.814625 14.2224L14.0433 27.451L13.166 28.9168L-4.68491 23.5264L-4.17577 21.8403L10.3185 26.2171L-0.430795 15.4678L0.814625 14.2224Z" fill="white"/>
<path fill-rule="evenodd" clip-rule="evenodd" d="M11.7066 2.57546L24.9352 15.8041L26.401 14.9268L21.0106 -2.92407L19.3246 -2.41493L23.7013 12.0793L12.952 1.33004L11.7066 2.57546Z" fill="white"/>
</g>
<path d="M64.9161 39.1258C64.9161 53.5084 53.2568 65.1677 38.8742 65.1677C24.4916 65.1677 12.8323 53.5084 12.8323 39.1258C12.8323 24.7432 24.4916 13.0839 38.8742 13.0839C53.2568 13.0839 64.9161 24.7432 64.9161 39.1258Z" fill="#F8BA3A"/>
<path fill-rule="evenodd" clip-rule="evenodd" d="M66.4257 39.1258C66.4257 54.3421 54.0905 66.6774 38.8741 66.6774C23.6578 66.6774 11.3225 54.3421 11.3225 39.1258C11.3225 23.9095 23.6578 11.5742 38.8741 11.5742C54.0905 11.5742 66.4257 23.9095 66.4257 39.1258ZM38.8741 65.1677C53.2567 65.1677 64.9161 53.5084 64.9161 39.1258C64.9161 24.7432 53.2567 13.0839 38.8741 13.0839C24.4916 13.0839 12.8322 24.7432 12.8322 39.1258C12.8322 53.5084 24.4916 65.1677 38.8741 65.1677Z" fill="white"/>
<mask id="mask1_902_2" style="mask-type:alpha" maskUnits="userSpaceOnUse" x="13" y="13" width="53" height="53">
<path d="M65.1679 39.1258C65.1679 53.5084 53.5085 65.1677 39.1259 65.1677C24.7434 65.1677 13.084 53.5084 13.084 39.1258C13.084 24.7432 24.7434 13.0839 39.1259 13.0839C53.5085 13.0839 65.1679 24.7432 65.1679 39.1258Z" fill="white"/>
</mask>
<g mask="url(#mask1_902_2)">
</g>
<mask id="mask2_902_2" style="mask-type:alpha" maskUnits="userSpaceOnUse" x="11" y="11" width="56" height="56">
<path fill-rule="evenodd" clip-rule="evenodd" d="M66.6775 39.1258C66.6775 54.3421 54.3422 66.6774 39.1258 66.6774C23.9095 66.6774 11.5742 54.3421 11.5742 39.1258C11.5742 23.9095 23.9095 11.5742 39.1258 11.5742C54.3422 11.5742 66.6775 23.9095 66.6775 39.1258ZM39.1258 65.1677C53.5084 65.1677 65.1678 53.5084 65.1678 39.1258C65.1678 24.7432 53.5084 13.0839 39.1258 13.0839C24.7433 13.0839 13.0839 24.7432 13.0839 39.1258C13.0839 53.5084 24.7433 65.1677 39.1258 65.1677Z" fill="white"/>
</mask>
<g mask="url(#mask2_902_2)">
</g>
<path fill-rule="evenodd" clip-rule="evenodd" d="M40.3839 12.09L36.8613 39.6291H40.3839L39 65.738L64.6722 61.142C64.6722 61.142 66.7119 37.4926 64.6722 28.47C62.6326 19.4474 50.7001 14.82 50.7001 14.82L40.3839 12.09Z" fill="white"/>
<path d="M14.2278 35.5822C14.8339 40.5182 18.0448 45.6537 22.9795 45.0478C39.7274 42.9914 37.3743 32.2291 37.1487 28.7434C38.3608 38.6153 45.8584 42.2386 58.4193 40.6963C62.1577 40.2373 63.6892 32.9309 63.2753 29.56C62.758 25.3463 51.6017 24.7303 37.6949 26.4379C23.7881 28.1454 13.4702 29.4123 14.2278 35.5822Z" fill="#01C1AE"/>
<path fill-rule="evenodd" clip-rule="evenodd" d="M16.5672 32.7991C15.7904 33.529 15.4692 34.3356 15.6016 35.4136C15.879 37.6734 16.7521 39.9307 18.0511 41.5162C19.3292 43.0761 20.9318 43.905 22.8111 43.6742C30.868 42.685 33.9395 39.6762 35.1611 36.8779C36.2656 34.3479 36.026 31.7356 35.8496 29.8118C35.8174 29.461 35.7873 29.1331 35.7679 28.8328C35.7494 28.5477 35.8188 28.2767 35.953 28.0467C29.7827 28.811 24.5715 29.5185 20.87 30.6591C18.8295 31.2879 17.4159 32.0014 16.5672 32.7991ZM38.1402 27.7777C38.3445 27.9872 38.4841 28.2627 38.5224 28.5747C39.0838 33.1469 41.0515 36.0854 44.1873 37.7832C47.4163 39.5316 52.0921 40.079 58.2509 39.3228C58.7262 39.2644 59.229 38.9819 59.7468 38.3552C60.269 37.7232 60.73 36.8267 61.097 35.7672C61.8373 33.6296 62.0794 31.1737 61.902 29.7286C61.8569 29.3613 61.5729 28.8415 60.4306 28.3084C59.2996 27.7804 57.5996 27.3825 55.3663 27.1552C50.982 26.7091 44.9374 26.9562 38.1402 27.7777ZM37.3947 25.0805L37.5265 25.0643C44.5236 24.2052 50.906 23.9193 55.6465 24.4017C58.0052 24.6417 60.0605 25.0812 61.6013 25.8004C63.131 26.5144 64.4355 27.6518 64.6491 29.3913C64.8856 31.3171 64.5689 34.1998 63.7123 36.673C63.2809 37.9188 62.6839 39.1457 61.8805 40.1181C61.0727 41.0958 59.9821 41.8987 58.5882 42.0699C52.186 42.856 46.8326 42.3629 42.8695 40.2171C40.9954 39.2024 39.4777 37.8435 38.3228 36.1522C38.1675 36.7619 37.9633 37.3767 37.6977 37.9852C35.9653 41.9536 31.8394 45.3542 23.1484 46.4213C20.093 46.7965 17.6228 45.3606 15.9102 43.2703C14.2185 41.2055 13.183 38.427 12.8545 35.7509C12.608 33.7438 13.2924 32.0784 14.6718 30.7821C15.9792 29.5535 17.8723 28.6867 20.0549 28.0141C24.3956 26.6765 30.5469 25.9213 37.3947 25.0805Z" fill="#01C1AE"/>
<path d="M39.2821 56.0634C45.117 55.5873 49.4943 50.8767 49.059 45.5419L27.929 47.2659C28.3642 52.6007 33.4472 56.5394 39.2821 56.0634Z" fill="white"/>
<path fill-rule="evenodd" clip-rule="evenodd" d="M27.3021 47.3171C27.2739 46.9708 27.5317 46.6672 27.8779 46.639L49.008 44.915C49.3543 44.8867 49.6579 45.1445 49.6861 45.4908C50.1538 51.2235 45.4605 56.1904 39.3334 56.6903C33.2063 57.1902 27.7699 53.0498 27.3021 47.3171ZM28.6309 47.8398C29.3638 52.4628 33.9248 55.8694 39.2311 55.4364C44.5373 55.0035 48.4858 50.9027 48.4596 46.222L28.6309 47.8398Z" fill="#FE9D51"/>
<path fill-rule="evenodd" clip-rule="evenodd" d="M41.5161 50.3226C41.5161 50.0447 41.7414 49.8194 42.0193 49.8194H47.8064C48.0844 49.8194 48.3097 50.0447 48.3097 50.3226C48.3097 50.6005 48.0844 50.8258 47.8064 50.8258H42.0193C41.7414 50.8258 41.5161 50.6005 41.5161 50.3226Z" fill="#FE9A54"/>
<path d="M45.1646 38.371C40.6355 36.66 38.8323 32.1226 38.4968 30.0677C38.4968 27.3 41.642 26.9226 49.3162 26.9226C56.9904 26.9226 61.6452 27.5516 62.0226 29.5645C62.4001 33.0871 61.142 38.371 59.3807 39.2516C57.6194 40.1323 50.8259 40.5097 45.1646 38.371Z" fill="black"/>
<path d="M31.843 40.7304C35.4774 38.3351 37.3646 33.7161 36.2324 29.8161C35.5875 27.5949 32.0467 28.1396 25.413 29.1871C19.5001 30.1207 14.9711 32.7097 15.4743 34.9742C15.7258 38.6846 18.588 42.6031 20.2549 43.2774C21.9219 43.9517 27.3001 43.7246 31.843 40.7304Z" fill="black"/>
<path d="M63.2807 18.1161L65.4893 24.0849L71.4581 26.2935L65.4893 28.5022L63.2807 34.471L61.072 28.5022L55.1033 26.2935L61.072 24.0849L63.2807 18.1161Z" fill="white"/>
<path d="M74 66.5C74 72.299 69.299 77 63.5 77C57.701 77 53 72.299 53 66.5C53 60.701 57.701 56 63.5 56C69.299 56 74 60.701 74 66.5Z" fill="#216C58"/>
<path fill-rule="evenodd" clip-rule="evenodd" d="M75 66.5C75 72.8513 69.8513 78 63.5 78C57.1487 78 52 72.8513 52 66.5C52 60.1487 57.1487 55 63.5 55C69.8513 55 75 60.1487 75 66.5ZM63.5 77C69.299 77 74 72.299 74 66.5C74 60.701 69.299 56 63.5 56C57.701 56 53 60.701 53 66.5C53 72.299 57.701 77 63.5 77Z" fill="white"/>
<rect x="62.2104" y="71.1053" width="1.10526" height="1.10526" fill="#216C58"/>
<rect x="64.0522" y="71.1053" width="1.10526" height="1.10526" fill="#216C58"/>
<rect x="59.9998" y="59.6842" width="7.73684" height="0.921053" rx="0.460526" fill="white"/>
<path d="M63.4998 60.9737L63.4998 73.4079C63.4998 73.6622 63.2936 73.8684 63.0392 73.8684V73.8684C62.7849 73.8684 62.5787 73.6622 62.5787 73.4079L62.5787 60.9737L63.4998 60.9737Z" fill="white"/>
<path d="M64.9736 60.9737L64.9736 73.4079C64.9736 73.6622 64.7674 73.8684 64.5131 73.8684V73.8684C64.2588 73.8684 64.0526 73.6622 64.0526 73.4079L64.0526 60.9737L64.9736 60.9737Z" fill="white"/>
<path d="M66.0497 65.0804C65.862 65.0804 65.7106 64.9364 65.6477 64.7595C65.5533 64.4939 65.3783 64.2773 65.1227 64.1097C64.7709 63.8791 64.2935 63.7638 63.6903 63.7638C63.2805 63.7638 62.9345 63.8154 62.6523 63.9187C62.3701 64.0185 62.1535 64.1579 62.0028 64.3369C61.8559 64.5159 61.7824 64.719 61.7824 64.9462C61.7747 65.1355 61.8191 65.3007 61.9158 65.4418C62.0163 65.583 62.1535 65.7051 62.3275 65.8084C62.5015 65.9082 62.7025 65.996 62.9306 66.0717C63.1587 66.144 63.4023 66.206 63.6613 66.2576L64.7284 66.4848C65.2465 66.588 65.722 66.7257 66.155 66.8978C66.588 67.0699 66.963 67.2816 67.2801 67.5329C67.5971 67.7842 67.8426 68.0802 68.0166 68.421C68.1944 68.7617 68.2853 69.1524 68.2891 69.593C68.2853 70.2401 68.0997 70.8012 67.7324 71.2762C67.369 71.7477 66.8432 72.1143 66.155 72.3759C65.4707 72.6341 64.6453 72.7632 63.6787 72.7632C62.7199 72.7632 61.8848 72.6324 61.1735 72.3708C60.466 72.1092 59.9131 71.7219 59.5149 71.2091C59.1875 70.7804 58.9894 70.2676 58.9205 69.6705C58.8967 69.4647 59.0651 69.2935 59.2723 69.2935H60.9829C61.1755 69.2935 61.3304 69.4438 61.3806 69.6297C61.4374 69.8396 61.5326 70.0236 61.6664 70.1816C61.8713 70.4157 62.1439 70.5929 62.4841 70.7134C62.8282 70.8304 63.2167 70.8889 63.6497 70.8889C64.075 70.8889 64.4442 70.8339 64.7574 70.7237C65.0744 70.6136 65.3199 70.4604 65.4939 70.2642C65.6679 70.068 65.7549 69.8425 65.7549 69.5878C65.7549 69.3503 65.6756 69.1507 65.5171 68.9889C65.3624 68.8271 65.1343 68.6894 64.8328 68.5759C64.5351 68.4623 64.1697 68.359 63.7367 68.2661L62.4435 67.9769C61.4422 67.7601 60.6515 67.421 60.0716 66.9598C59.4917 66.4985 59.2037 65.8773 59.2075 65.0959C59.2037 64.4557 59.395 63.8963 59.7817 63.4179C60.1721 62.9394 60.7076 62.566 61.388 62.2975C62.0685 62.029 62.8417 61.8947 63.7077 61.8947C64.5892 61.8947 65.3586 62.029 66.0158 62.2975C66.6769 62.566 67.1911 62.9394 67.5584 63.4179C67.8512 63.7993 68.031 64.2288 68.0977 64.7064C68.1263 64.9106 67.9576 65.0804 67.7515 65.0804H66.0497Z" fill="white"/>
<path fill-rule="evenodd" clip-rule="evenodd" d="M62.7772 64.2654L62.7754 64.266C62.5392 64.3496 62.3846 64.4565 62.2863 64.5725C62.1933 64.6864 62.151 64.8068 62.151 64.9462V64.9537L62.1507 64.9612C62.1459 65.0786 62.1724 65.1629 62.2182 65.231C62.2839 65.3224 62.379 65.41 62.5135 65.4902C62.6614 65.5748 62.8376 65.6524 63.0446 65.7213C63.2579 65.7888 63.4874 65.8472 63.7336 65.8963L63.7359 65.8968L64.803 66.1239C65.3392 66.2309 65.8357 66.3744 66.2913 66.5555C66.7527 66.7389 67.1601 66.9675 67.5091 67.2442C67.8647 67.526 68.1448 67.8621 68.3442 68.252C68.5522 68.6511 68.6535 69.1001 68.6578 69.5898L68.6578 69.5925L68.6578 69.5952C68.6535 70.3164 68.4448 70.9574 68.0242 71.5014C67.6104 72.0382 67.0228 72.4403 66.2861 72.7203L66.2853 72.7206C65.5484 72.9986 64.6764 73.1316 63.679 73.1316C62.6878 73.1316 61.8078 72.9965 61.0465 72.7165L61.0459 72.7163C60.2845 72.4348 59.671 72.0105 59.2241 71.435L59.2232 71.4338L59.2223 71.4327C58.8502 70.9454 58.6303 70.368 58.5547 69.7127C58.5031 69.2655 58.8687 68.9251 59.2725 68.9251H60.9831C61.3826 68.9251 61.6543 69.2297 61.7365 69.5336C61.7796 69.6928 61.8498 69.827 61.9459 69.9412C62.1024 70.1191 62.3172 70.263 62.6052 70.3653C62.904 70.4667 63.2508 70.5205 63.65 70.5205C64.0447 70.5205 64.3708 70.4692 64.6354 70.3762L64.636 70.3759L64.6367 70.3757C64.9104 70.2806 65.0965 70.1573 65.2185 70.0198C65.3346 69.8888 65.3867 69.7496 65.3867 69.5878C65.3867 69.4415 65.3416 69.336 65.2542 69.2467L65.2526 69.2451L65.251 69.2435C65.1475 69.1352 64.9741 69.0227 64.7031 68.9206L64.7024 68.9203L64.7017 68.9201C64.4268 68.8152 64.0808 68.7167 63.6596 68.6263L63.6581 68.626L62.3658 68.337C62.3653 68.3369 62.3649 68.3368 62.3645 68.3367C61.3284 68.1122 60.4801 67.7552 59.8425 67.2481C59.1693 66.7127 58.8355 65.9823 58.8393 65.0961C58.8354 64.3754 59.0534 63.7333 59.4953 63.1863L59.4959 63.1856L59.4965 63.1849C59.9336 62.6493 60.5248 62.2421 61.2531 61.9548C61.9837 61.6665 62.804 61.5263 63.708 61.5263C64.6259 61.5263 65.4444 61.666 66.1551 61.9563C66.8655 62.2449 67.437 62.6544 67.8509 63.1935C68.1826 63.6256 68.3873 64.1149 68.4628 64.6554C68.5266 65.1119 68.1494 65.4488 67.7517 65.4488H66.05C65.6589 65.4488 65.3979 65.1563 65.3008 64.8829C65.2356 64.6995 65.1153 64.5452 64.921 64.4179C64.6499 64.2402 64.2516 64.1322 63.6906 64.1322C63.3093 64.1322 63.009 64.1806 62.7791 64.2647L62.7772 64.2654ZM66.0161 62.2975C65.3588 62.029 64.5894 61.8947 63.708 61.8947C62.8419 61.8947 62.0687 62.029 61.3883 62.2975C60.7078 62.566 60.1724 62.9394 59.7819 63.4179C59.3953 63.8963 59.2039 64.4557 59.2078 65.0959C59.2039 65.8772 59.4919 66.4985 60.0719 66.9598C60.6518 67.421 61.4424 67.7601 62.4437 67.9769L63.737 68.2661C64.17 68.359 64.5353 68.4623 64.833 68.5759C65.1346 68.6894 65.3627 68.8271 65.5173 68.9889C65.6758 69.1507 65.7551 69.3503 65.7551 69.5878C65.7551 69.8425 65.6681 70.068 65.4941 70.2642C65.3201 70.4604 65.0746 70.6136 64.7576 70.7237C64.4445 70.8339 64.0752 70.8889 63.65 70.8889C63.217 70.8889 62.8284 70.8304 62.4843 70.7134C62.1441 70.5929 61.8715 70.4157 61.6666 70.1816C61.5329 70.0235 61.4376 69.8396 61.3809 69.6297C61.3306 69.4438 61.1757 69.2935 60.9831 69.2935H59.2725C59.0654 69.2935 58.8969 69.4647 58.9207 69.6705C58.9896 70.2676 59.1877 70.7804 59.5151 71.2091C59.9133 71.7219 60.4662 72.1092 61.1737 72.3708C61.8851 72.6324 62.7202 72.7632 63.679 72.7632C64.6455 72.7632 65.4709 72.6341 66.1552 72.3759C66.8434 72.1143 67.3692 71.7477 67.7326 71.2762C68.0999 70.8012 68.2855 70.2401 68.2893 69.593C68.2855 69.1524 68.1946 68.7617 68.0168 68.421C67.8428 68.0802 67.5973 67.7842 67.2803 67.5329C66.9633 67.2816 66.5882 67.0699 66.1552 66.8978C65.7222 66.7257 65.2467 66.588 64.7286 66.4848L63.6616 66.2576C63.4025 66.206 63.159 66.144 62.9309 66.0717C62.7028 65.996 62.5017 65.9082 62.3278 65.8084C62.1538 65.7051 62.0165 65.5829 61.916 65.4418C61.8194 65.3007 61.7749 65.1355 61.7826 64.9462C61.7826 64.719 61.8561 64.5159 62.003 64.3369C62.1538 64.1579 62.3703 64.0185 62.6525 63.9187C62.9347 63.8154 63.2808 63.7638 63.6906 63.7638C64.2937 63.7638 64.7712 63.8791 65.123 64.1097C65.3786 64.2773 65.5536 64.4939 65.6479 64.7595C65.7108 64.9364 65.8623 65.0804 66.05 65.0804H67.7517C67.9578 65.0804 68.1265 64.9106 68.098 64.7064C68.0312 64.2288 67.8514 63.7993 67.5586 63.4179C67.1914 62.9394 66.6772 62.566 66.0161 62.2975Z" fill="#216C58"/>
<rect x="62.5789" y="63.3684" width="0.921053" height="1.28947" fill="white"/>
<rect x="62.5789" y="67.9737" width="0.921053" height="1.28947" fill="white"/>
<rect x="62.5789" y="71.8421" width="0.921053" height="1.28947" fill="white"/>
<rect x="64.0522" y="63.3684" width="0.921053" height="1.28947" fill="white"/>
<rect x="64.0522" y="67.9737" width="0.921053" height="1.28947" fill="white"/>
<rect x="64.0522" y="71.8421" width="0.921053" height="1.28947" fill="white"/>
<path fill-rule="evenodd" clip-rule="evenodd" d="M72.7706 67.0527C72.6242 67.0527 72.5035 67.1672 72.4905 67.3131C72.0795 71.9172 68.2113 75.5263 63.5003 75.5263C58.7892 75.5263 54.9211 71.9172 54.5101 67.3131C54.4971 67.1672 54.3764 67.0527 54.23 67.0527V67.0527C54.071 67.0527 53.9443 67.187 53.9581 67.3454C54.3861 72.2398 58.4949 76.079 63.5003 76.079C68.5057 76.079 72.6144 72.2398 73.0424 67.3454C73.0563 67.187 72.9296 67.0527 72.7706 67.0527V67.0527ZM54.23 65.9474C54.3764 65.9474 54.4971 65.8328 54.5101 65.687C54.9211 61.0829 58.7892 57.4737 63.5003 57.4737C68.2113 57.4737 72.0795 61.0829 72.4905 65.687C72.5035 65.8328 72.6242 65.9474 72.7706 65.9474V65.9474C72.9296 65.9474 73.0563 65.8131 73.0424 65.6546C72.6144 60.7603 68.5057 56.9211 63.5003 56.9211C58.4949 56.9211 54.3861 60.7603 53.9581 65.6546C53.9443 65.8131 54.071 65.9474 54.23 65.9474V65.9474Z" fill="white"/>
<path d="M35 66.4973C35 67.8761 35.2716 69.2415 35.7993 70.5154C36.3269 71.7894 37.1004 72.9469 38.0754 73.9219C39.0504 74.8969 40.2079 75.6703 41.4818 76.198C42.7557 76.7257 44.1211 76.9973 45.5 76.9973C46.8789 76.9973 48.2443 76.7257 49.5182 76.198C50.7921 75.6703 51.9496 74.8969 52.9246 73.9219C53.8996 72.9469 54.6731 71.7894 55.2007 70.5154C55.7284 69.2415 56 67.8761 56 66.4973C56 65.1184 55.7284 63.753 55.2007 62.4791C54.6731 61.2052 53.8996 60.0477 52.9246 59.0726C51.9496 58.0976 50.7921 57.3242 49.5182 56.7965C48.2443 56.2689 46.8789 55.9973 45.5 55.9973C44.1211 55.9973 42.7557 56.2689 41.4818 56.7965C40.2079 57.3242 39.0504 58.0976 38.0754 59.0726C37.1004 60.0477 36.3269 61.2052 35.7993 62.4791C35.2716 63.753 35 65.1184 35 66.4973V66.4973Z" fill="#26A17B"/>
<path fill-rule="evenodd" clip-rule="evenodd" d="M34.8754 70.8981C34.2975 69.5029 34 68.0075 34 66.4973C34 64.9871 34.2975 63.4917 34.8754 62.0964C35.4533 60.7012 36.3004 59.4334 37.3683 58.3655C38.4361 57.2977 39.7039 56.4506 41.0991 55.8727C42.4944 55.2947 43.9898 54.9973 45.5 54.9973C47.0102 54.9973 48.5056 55.2947 49.9009 55.8727C51.2961 56.4506 52.5639 57.2977 53.6317 58.3655C54.6996 59.4334 55.5467 60.7012 56.1246 62.0964C56.7025 63.4917 57 64.9871 57 66.4973C57 68.0075 56.7025 69.5029 56.1246 70.8981C55.5467 72.2934 54.6996 73.5611 53.6317 74.629C52.5639 75.6969 51.2961 76.544 49.9009 77.1219C48.5056 77.6998 47.0102 77.9973 45.5 77.9973C43.9898 77.9973 42.4944 77.6998 41.0991 77.1219C39.7039 76.544 38.4361 75.6969 37.3683 74.629C36.3004 73.5611 35.4533 72.2934 34.8754 70.8981ZM35.7993 70.5154C35.2716 69.2415 35 67.8761 35 66.4973C35 65.1184 35.2716 63.753 35.7993 62.4791C36.3269 61.2052 37.1004 60.0477 38.0754 59.0726C39.0504 58.0976 40.2079 57.3242 41.4818 56.7965C42.7557 56.2689 44.1211 55.9973 45.5 55.9973C46.8789 55.9973 48.2443 56.2689 49.5182 56.7965C50.7921 57.3242 51.9496 58.0976 52.9246 59.0726C53.8996 60.0477 54.6731 61.2052 55.2007 62.4791C55.7284 63.753 56 65.1184 56 66.4973C56 67.8761 55.7284 69.2415 55.2007 70.5154C54.6731 71.7894 53.8996 72.9469 52.9246 73.9219C51.9496 74.8969 50.7921 75.6703 49.5182 76.198C48.2443 76.7257 46.8789 76.9973 45.5 76.9973C44.1211 76.9973 42.7557 76.7257 41.4818 76.198C40.2079 75.6703 39.0504 74.8969 38.0754 73.9219C37.1004 72.9469 36.3269 71.7894 35.7993 70.5154Z" fill="white"/>
<path d="M51.9616 65.9576C51.9616 65.0318 49.6742 64.4893 47.1053 64.3606V63.2274H50.6938V60.8434H41.1137V63.2274H44.7024V64.3606C42.1338 64.4893 39.8462 65.032 39.8462 65.9576C39.8462 66.8829 42.1336 67.4255 44.7024 67.5542V72.1511H47.1056V67.5544C49.6742 67.4257 51.9616 66.8829 51.9616 65.9576V65.9576ZM47.1053 67.1577V67.1529C46.7128 67.1767 46.3043 67.1846 45.9038 67.1846C45.5033 67.1846 45.0947 67.1767 44.7022 67.1529V67.1577C41.9143 67.018 40.2465 66.4098 40.2465 65.9576C40.2465 65.5056 41.9141 64.8969 44.7022 64.7572V66.7556C45.0867 66.7794 45.4873 66.7873 45.9038 66.7873C46.3283 66.7873 46.7288 66.7794 47.1053 66.7556V64.7572C49.8932 64.8969 51.5611 65.5056 51.5611 65.9576C51.5611 66.4098 49.8934 67.018 47.1053 67.1577Z" fill="white"/>
<defs>
<linearGradient id="paint0_linear_902_2" x1="39" y1="0" x2="39" y2="78" gradientUnits="userSpaceOnUse">
<stop stop-color="#F5B745"/>
<stop offset="1" stop-color="#FC8B47"/>
</linearGradient>
</defs>
</svg>
