<?xml version="1.0" encoding="UTF-8"?>
<svg width="32px" height="31px" viewBox="0 0 32 31" version="1.1" xmlns="http://www.w3.org/2000/svg" xmlns:xlink="http://www.w3.org/1999/xlink">
    <title>矿池</title>
    <defs>
        <linearGradient x1="-2.68882139e-15%" y1="50%" x2="100%" y2="50%" id="linearGradient-1">
            <stop stop-color="#4504FE" offset="0%"></stop>
            <stop stop-color="#E64DFF" offset="100%"></stop>
        </linearGradient>
        <filter x="-107.1%" y="-107.1%" width="314.3%" height="314.3%" filterUnits="objectBoundingBox" id="filter-2">
            <feGaussianBlur stdDeviation="5" in="SourceGraphic"></feGaussianBlur>
        </filter>
    </defs>
    <g id="页面-1" stroke="none" stroke-width="1" fill="none" fill-rule="evenodd">
        <g id="M-更多-浅色" transform="translate(-247.000000, -793.000000)">
            <g id="编组-12备份" transform="translate(0.000000, 792.000000)">
                <g id="编组-9" transform="translate(247.500000, 1.000000)">
                    <circle id="椭圆形" fill="url(#linearGradient-1)" opacity="0.699999988" filter="url(#filter-2)" cx="16.5" cy="16" r="7"></circle>
                    <g id="编组-16" transform="translate(9.000000, 5.000000)" stroke="#722FFF">
                        <path d="M11,7.34788079e-16 C12.1045695,8.02423455e-16 13,0.8954305 13,2 C13,3.1045695 12.1045695,4 11,4 L9,4 L9,7 L11,7 C12.6568542,7 14,8.34314575 14,10 L14,13.5 C14,17.0898509 11.0898509,20 7.5,20 L6.5,20 C2.91014913,20 4.39629938e-16,17.0898509 0,13.5 L0,10 C2.41183085e-16,8.34314575 1.34314575,7 3,7 L5,7 L5,3.999 L3,4 C1.8954305,4 1,3.1045695 1,2 C1,0.8954305 1.8954305,-8.02423455e-16 3,-7.34788079e-16 L11,7.34788079e-16 Z" id="形状结合" stroke-width="2" stroke-linejoin="round"></path>
                        <rect id="矩形" x="6.5" y="10.5" width="1" height="6" rx="0.5"></rect>
                    </g>
                </g>
            </g>
        </g>
    </g>
</svg>