<?xml version="1.0" encoding="UTF-8"?>
<svg width="31px" height="31px" viewBox="0 0 31 31" version="1.1" xmlns="http://www.w3.org/2000/svg" xmlns:xlink="http://www.w3.org/1999/xlink">
    <title>首页-n</title>
    <defs>
        <linearGradient x1="50%" y1="0%" x2="50%" y2="100%" id="linearGradient-1">
            <stop stop-color="#4504FE" offset="0%"></stop>
            <stop stop-color="#E64DFF" offset="100%"></stop>
        </linearGradient>
        <path d="M34.5,15.25 C34.5,18.5637085 37.1862915,21.25 40.5,21.25" id="path-2"></path>
    </defs>
    <g id="页面-1" stroke="none" stroke-width="1" fill="none" fill-rule="evenodd">
        <g id="首页" transform="translate(-22.000000, -637.000000)">
            <g id="编组-4" transform="translate(0.000000, 636.000000)">
                <rect id="矩形" fill="#FFFFFF" opacity="0" x="0" y="0" width="75" height="48"></rect>
                <path d="M36.0307395,7.42471372 C36.9254835,6.93501953 38.0077395,6.93348468 38.9038688,7.42063905 L38.9038688,7.42063905 L46.4776099,11.5378807 C46.6385868,11.6253911 46.7691843,11.7534212 46.8595376,11.9053802 C46.9498909,12.0573392 47,12.2332271 47,12.4164527 L47,12.4164527 L47.0000013,23.1570297 C46.9996533,23.3751809 46.9286154,23.5806375 46.8055431,23.7477739 C46.6826915,23.9146107 46.507978,24.0432394 46.2992514,24.1083577 C43.3374377,25.0352127 40.3926808,25.5 37.4645774,25.5 C34.5414438,25.5 31.6188118,25.0367449 28.6980075,24.1130266 C28.4901183,24.0468804 28.3155447,23.9172773 28.192968,23.7496598 C28.0705089,23.5822029 27.9999545,23.3767912 28,23.1586248 L28,23.1586248 L28,12.4126168 C28,12.2298995 28.049834,12.0544573 28.1397384,11.9027638 C28.2296429,11.7510703 28.3596179,11.6231255 28.5199001,11.535403 L28.5199001,11.535403 Z" id="矩形" stroke="#FFFFFF" stroke-width="2" opacity="0.5"></path>
                <g id="路径" opacity="0.5" transform="translate(37.500000, 18.250000) rotate(-45.000000) translate(-37.500000, -18.250000) " stroke-width="2">
                    <path stroke="url(#linearGradient-1)" d="M34.5,15.25 C34.5,18.5637085 37.1862915,21.25 40.5,21.25" stroke-linejoin="square"></path>
                    <use stroke="#FFFFFF" xlink:href="#path-2"></use>
                </g>
            </g>
        </g>
    </g>
</svg>