<?xml version="1.0" encoding="UTF-8"?>
<svg width="31px" height="31px" viewBox="0 0 31 31" version="1.1" xmlns="http://www.w3.org/2000/svg" xmlns:xlink="http://www.w3.org/1999/xlink">
    <title>首页 n</title>
    <g id="页面-1" stroke="none" stroke-width="1" fill="none" fill-rule="evenodd" opacity="0.5">
        <g id="M-更多-浅色" transform="translate(-22.000000, -841.000000)" stroke="#333333" stroke-width="2">
            <g id="编组-12" transform="translate(0.000000, 840.000000)">
                <g id="编组-4" transform="translate(22.000000, 1.000000)">
                    <path d="M14.0307395,6.42471372 C14.9254835,5.93501953 16.0077395,5.93348468 16.9038688,6.42063905 L16.9038688,6.42063905 L24.4776099,10.5378807 C24.6385868,10.6253911 24.7691843,10.7534212 24.8595376,10.9053802 C24.9498909,11.0573392 25,11.2332271 25,11.4164527 L25,11.4164527 L25.0000013,22.1570297 C24.9996533,22.3751809 24.9286154,22.5806375 24.8055431,22.7477739 C24.6826915,22.9146107 24.507978,23.0432394 24.2992514,23.1083577 C21.3374377,24.0352127 18.3926808,24.5 15.4645774,24.5 C12.5414438,24.5 9.61881182,24.0367449 6.69800749,23.1130266 C6.4901183,23.0468804 6.31554466,22.9172773 6.19296803,22.7496598 C6.07050891,22.5822029 5.99995449,22.3767912 6,22.1586248 L6,22.1586248 L6,11.4126168 C6,11.2298995 6.04983395,11.0544573 6.13973844,10.9027638 C6.22964292,10.7510703 6.35961794,10.6231255 6.51990008,10.535403 L6.51990008,10.535403 Z" id="矩形"></path>
                    <path d="M12.5,14.25 C12.5,17.5637085 15.1862915,20.25 18.5,20.25" id="路径" stroke-linecap="round" transform="translate(15.500000, 17.250000) rotate(-45.000000) translate(-15.500000, -17.250000) "></path>
                </g>
            </g>
        </g>
    </g>
</svg>