<?xml version="1.0" encoding="UTF-8"?>
<svg width="22px" height="23px" viewBox="0 0 22 23" version="1.1" xmlns="http://www.w3.org/2000/svg" xmlns:xlink="http://www.w3.org/1999/xlink">
    <title>语言</title>
    <defs>
        <path d="M10,3.16025404 C14.9705627,3.16025404 19,7.18969129 19,12.160254 C19,14.6455354 17.9926407,16.8955354 16.363961,18.5242151 L17.2928932,19.4531473 C17.6834175,19.8436715 17.6834175,20.4768365 17.2928932,20.8673608 C17.1053568,21.0548972 16.8510029,21.160254 16.5857864,21.160254 L10,21.160254 C5.02943725,21.160254 1,17.1308168 1,12.160254 C1,7.18969129 5.02943725,3.16025404 10,3.16025404 Z" id="path-1"></path>
        <filter x="-25.0%" y="-25.0%" width="138.9%" height="138.9%" filterUnits="objectBoundingBox" id="filter-2">
            <feOffset dx="-1" dy="-1" in="SourceAlpha" result="shadowOffsetOuter1"></feOffset>
            <feGaussianBlur stdDeviation="1" in="shadowOffsetOuter1" result="shadowBlurOuter1"></feGaussianBlur>
            <feComposite in="shadowBlurOuter1" in2="SourceAlpha" operator="out" result="shadowBlurOuter1"></feComposite>
            <feColorMatrix values="0 0 0 0 0.118805823   0 0 0 0 0.118805823   0 0 0 0 0.162279212  0 0 0 0.197392817 0" type="matrix" in="shadowBlurOuter1"></feColorMatrix>
        </filter>
    </defs>
    <g id="页面-1" stroke="none" stroke-width="1" fill="none" fill-rule="evenodd">
        <g id="更多" transform="translate(-39.000000, -700.000000)">
            <g id="编组-18" transform="translate(39.000000, 700.839746)">
                <path d="M14,1.16025404 C18.418278,1.16025404 22,4.74197604 22,9.16025404 C22,11.369393 21.1045695,13.369393 19.6568542,14.8171083 L20.2928932,15.4531473 C20.6834175,15.8436715 20.6834175,16.4768365 20.2928932,16.8673608 C20.1053568,17.0548972 19.8510029,17.160254 19.5857864,17.160254 L14,17.160254 C9.581722,17.160254 6,13.578532 6,9.16025404 C6,4.74197604 9.581722,1.16025404 14,1.16025404 Z" id="形状结合" fill="#8B5AEA"></path>
                <g id="形状结合备份" transform="translate(10.000000, 12.160254) scale(-1, 1) translate(-10.000000, -12.160254) ">
                    <use fill="black" fill-opacity="1" filter="url(#filter-2)" xlink:href="#path-1"></use>
                    <path stroke-opacity="0.295454545" stroke="#FFFFFF" stroke-width="1" d="M10,3.66025404 C12.3472102,3.66025404 14.4722102,4.61164894 16.0104076,6.1498464 C17.5486051,7.68804385 18.5,9.81304385 18.5,12.160254 C18.5,14.6873825 17.3971626,16.9569295 15.6465109,18.5138718 L15.6465109,18.5138718 L16.9393398,19.8067006 L10,20.660254 C7.65278981,20.660254 5.52778981,19.7088591 3.98959236,18.1706617 C2.45139491,16.6324642 1.5,14.5074642 1.5,12.160254 C1.5,9.81304385 2.45139491,7.68804385 3.98959236,6.1498464 C5.52778981,4.61164894 7.65278981,3.66025404 10,3.66025404 Z" stroke-linejoin="square" fill-opacity="0.3" fill="#8B5AEA" fill-rule="evenodd"></path>
                </g>
                <g id="A" transform="translate(6.279297, 8.243262)" fill="#FFFFFF" fill-rule="nonzero" stroke="#FFFFFF" stroke-width="0.5">
                    <path d="M5.19384766,6.28955078 L2.27734375,6.28955078 L1.95872576,7.23603363 C1.82174899,7.6429352 1.44032347,7.91699219 1.010985,7.91699219 L0.864746094,7.91699219 C0.528089842,7.91699219 0.255176027,7.64407837 0.255176027,7.30742212 C0.255176027,7.2376045 0.267170312,7.1683058 0.290635561,7.10254957 L2.51109228,0.880205065 C2.69944757,0.35238057 3.19934042,1.0294844e-16 3.75976562,0 C4.31992865,-1.02900278e-16 4.81932188,0.352929644 5.00631744,0.880959257 L7.19861635,7.07147382 C7.31548677,7.40148723 7.14270024,7.76375815 6.81268683,7.88062857 C6.74473023,7.90469461 6.67316634,7.91699219 6.60107422,7.91699219 L6.43856921,7.91699219 C6.00153101,7.91699219 5.61511917,7.63318519 5.48436983,7.21616361 L5.19384766,6.28955078 L5.19384766,6.28955078 Z M4.73193359,4.92529297 L3.74365234,1.81005859 L2.72314453,4.92529297 L4.73193359,4.92529297 Z" id="形状"></path>
                </g>
            </g>
        </g>
    </g>
</svg>