<?xml version="1.0" encoding="UTF-8"?>
<svg width="22px" height="23px" viewBox="0 0 22 23" version="1.1" xmlns="http://www.w3.org/2000/svg" xmlns:xlink="http://www.w3.org/1999/xlink">
    <title>世纪挖矿</title>
    <defs>
        <path d="M16,2.16025404 C17.1045695,2.16025404 18,3.05568454 18,4.16025404 C18,5.26482354 17.1045695,6.16025404 16,6.16025404 L14,6.16025404 L14,9.16025404 L16,9.16025404 C17.6568542,9.16025404 19,10.5033998 19,12.160254 L19,15.660254 C19,19.2501049 16.0898509,22.160254 12.5,22.160254 L11.5,22.160254 C7.91014913,22.160254 5,19.2501049 5,15.660254 L5,12.160254 C5,10.5033998 6.34314575,9.16025404 8,9.16025404 L10,9.16025404 L10,6.15925404 L8,6.16025404 C6.8954305,6.16025404 6,5.26482354 6,4.16025404 C6,3.05568454 6.8954305,2.16025404 8,2.16025404 L16,2.16025404 Z" id="path-1"></path>
        <filter x="-32.1%" y="-22.5%" width="150.0%" height="135.0%" filterUnits="objectBoundingBox" id="filter-2">
            <feOffset dx="-1" dy="-1" in="SourceAlpha" result="shadowOffsetOuter1"></feOffset>
            <feGaussianBlur stdDeviation="1" in="shadowOffsetOuter1" result="shadowBlurOuter1"></feGaussianBlur>
            <feComposite in="shadowBlurOuter1" in2="SourceAlpha" operator="out" result="shadowBlurOuter1"></feComposite>
            <feColorMatrix values="0 0 0 0 0.118805823   0 0 0 0 0.118805823   0 0 0 0 0.162279212  0 0 0 0.197392817 0" type="matrix" in="shadowBlurOuter1"></feColorMatrix>
        </filter>
    </defs>
    <g id="页面-1" stroke="none" stroke-width="1" fill="none" fill-rule="evenodd">
        <g id="更多" transform="translate(-39.000000, -530.000000)">
            <g id="编组-17" transform="translate(39.000000, 529.839746)">
                <circle id="椭圆形" fill="#8B5AEA" cx="8.5" cy="10.660254" r="8.5"></circle>
                <g id="形状结合" transform="translate(12.000000, 12.160254) rotate(-330.000000) translate(-12.000000, -12.160254) ">
                    <use fill="black" fill-opacity="1" filter="url(#filter-2)" xlink:href="#path-1"></use>
                    <path stroke-opacity="0.295454545" stroke="#FFFFFF" stroke-width="1" d="M16,2.66025404 C16.4142136,2.66025404 16.7892136,2.82814726 17.0606602,3.09959387 C17.3321068,3.37104048 17.5,3.74604048 17.5,4.16025404 C17.5,4.5744676 17.3321068,4.9494676 17.0606602,5.22091421 C16.7892136,5.49236082 16.4142136,5.66025404 16,5.66025404 L16,5.66025404 L13.5,5.66025404 L13.5,9.66025404 L16,9.66025404 C16.6903559,9.66025404 17.3153559,9.94007607 17.767767,10.3924871 C18.220178,10.8448981 18.5,11.4698981 18.5,12.160254 L18.5,12.160254 L18.5,15.660254 C18.5,17.3171083 17.8284271,18.8171083 16.7426407,19.9028947 C15.6568542,20.9886812 14.1568542,21.660254 12.5,21.660254 L12.5,21.660254 L11.5,21.660254 C9.84314575,21.660254 8.34314575,20.9886812 7.25735931,19.9028947 C6.17157288,18.8171083 5.5,17.3171083 5.5,15.660254 L5.5,15.660254 L5.5,12.160254 C5.5,11.4698981 5.77982203,10.8448981 6.23223305,10.3924871 C6.68464406,9.94007607 7.30964406,9.66025404 8,9.66025404 L8,9.66025404 L10.5,9.66025404 L10.5,5.65900396 L8,5.66025404 C7.58578644,5.66025404 7.21078644,5.49236082 6.93933983,5.22091421 C6.66789322,4.9494676 6.5,4.5744676 6.5,4.16025404 C6.5,3.74604048 6.66789322,3.37104048 6.93933983,3.09959387 C7.21078644,2.82814726 7.58578644,2.66025404 8,2.66025404 L8,2.66025404 Z" stroke-linejoin="square" fill-opacity="0.3" fill="#8B5AEA" fill-rule="evenodd"></path>
                </g>
                <rect id="矩形" stroke="#FFFFFF" transform="translate(10.250000, 15.191343) rotate(-330.000000) translate(-10.250000, -15.191343) " x="9.75" y="12.191343" width="1" height="6" rx="0.5"></rect>
            </g>
        </g>
    </g>
</svg>