<?xml version="1.0" encoding="UTF-8"?>
<svg width="35px" height="14px" viewBox="0 0 35 14" version="1.1" xmlns="http://www.w3.org/2000/svg" xmlns:xlink="http://www.w3.org/1999/xlink">
    <title>菜单三角</title>
    <g id="页面-1" stroke="none" stroke-width="1" fill="none" fill-rule="evenodd">
        <g id="首页备份" transform="translate(-169.000000, -618.000000)" fill="#444454">
            <g id="编组-14" transform="translate(112.000000, 418.000000)">
                <path d="M10,0 L143,0 C148.522847,-1.01453063e-15 153,4.4771525 153,10 L153,190 C153,195.522847 148.522847,200 143,200 L10,200 C4.4771525,200 -1.10000309e-15,195.522847 0,190 L0,10 C-6.76353751e-16,4.4771525 4.4771525,-7.61826213e-16 10,0 Z M73.1984173,213.884358 L57,200 L57,200 L92,200 L75.8015827,213.884358 C75.0526033,214.52634 73.9473967,214.52634 73.1984173,213.884358 Z" id="形状结合"></path>
            </g>
        </g>
    </g>
</svg>