<svg width="32" height="32" viewBox="0 0 32 32" fill="none" xmlns="http://www.w3.org/2000/svg">
<circle cx="16" cy="16" r="16" fill="white"/>
<path d="M16.1092 3.79917C18.3382 3.79917 20.4876 4.63504 22.0399 6.18737C23.632 7.73971 24.5077 9.76968 24.5077 11.9589V25.3328V25.4522H24.3883H7.83008H7.71066V25.3328V11.9589C7.71066 9.76968 8.58634 7.73971 10.1785 6.18737C11.7308 4.63504 13.8404 3.79917 16.1092 3.79917ZM16.1092 3.36133C13.7608 3.36133 11.5318 4.237 9.86005 5.86894C8.18831 7.50089 7.27283 9.65027 7.27283 11.9589V25.3328V25.8901H7.83008H24.3883H24.9456V25.3328V11.9589C24.9456 9.65027 24.0301 7.50089 22.3583 5.90875C20.6866 4.237 18.4576 3.36133 16.1092 3.36133Z" fill="#070001"/>
<path d="M21.3091 6.98825C21.1897 6.86884 21.0304 6.70963 20.911 6.59022C19.5975 5.43592 17.9258 4.83887 16.1346 4.83887C14.1843 4.83887 12.3135 5.59513 10.9602 6.98825C9.56706 8.38137 8.81079 10.2123 8.81079 12.1627V24.2629V24.3426H8.8904H23.3788H23.4585V24.2629V19.3671V16.9391V12.3617V12.2025C23.4585 10.2123 22.6624 8.38137 21.3091 6.98825ZM19.0403 23.5863C18.3636 23.8251 17.6074 23.9445 16.8511 23.9445H11.9951H11.5572V23.5067V21.5165C11.4378 21.3971 11.3184 21.2379 11.2388 21.1185C10.3233 19.9244 9.84568 18.4516 9.84568 16.9391V12.3617C9.84568 10.5706 10.5223 8.89882 11.7164 7.5853C11.8757 7.5853 12.0747 7.5853 12.2737 7.62511C13.5076 7.74452 15.1793 8.18236 16.6123 9.17744C17.886 10.0531 19.4383 11.6453 19.4383 14.2325V22.9892V23.4669C19.3189 23.5067 19.1995 23.5465 19.0403 23.5863Z" fill="#070001"/>
<path d="M16.6521 9.1771C15.2192 8.22182 13.5474 7.74417 12.3135 7.62476C12.1145 7.62476 11.9155 7.58496 11.7563 7.58496C10.5622 8.89847 9.8855 10.5702 9.8855 12.3614V16.9388C9.8855 18.4513 10.3631 19.924 11.2786 21.1181C11.398 21.2375 11.4776 21.3968 11.597 21.5162V23.5063V23.9442H12.0349H16.8909C17.6472 23.9442 18.3636 23.8248 19.0801 23.5859C19.2393 23.5461 19.3587 23.5063 19.5179 23.4267V22.9491V14.1923C19.4781 11.6051 17.9258 10.0528 16.6521 9.1771ZM11.9951 23.5063V21.954C12.7115 22.6307 13.5474 23.1879 14.4629 23.5063H11.9951ZM19.0403 23.1481C18.3636 23.3869 17.6074 23.5063 16.8511 23.5063C15.0997 23.5063 13.4678 22.8297 12.1941 21.556C12.1145 21.4764 12.0349 21.3968 11.9553 21.3171C11.7961 21.1579 11.6368 20.9589 11.5174 20.7599C10.6816 19.6454 10.2437 18.2921 10.2437 16.899V12.3614C10.2437 10.7692 10.8408 9.2169 11.8757 8.0228C14.6619 8.14221 19.0005 10.0528 19.0005 14.1923V23.1481H19.0403Z" fill="#070001"/>
<path d="M14.4361 18.1837C14.3167 18.1837 14.1973 18.0643 14.1973 17.9449V13.8849C14.1973 12.8102 15.0729 11.9346 16.1476 11.9346C17.2223 11.9346 18.098 12.8102 18.098 13.8849C18.098 14.0043 17.9786 14.1238 17.8592 14.1238C17.7398 14.1238 17.6204 14.0043 17.6204 13.8849C17.6204 13.0889 16.9437 12.4122 16.1476 12.4122C15.3516 12.4122 14.6749 13.0889 14.6749 13.8849V17.9449C14.6749 18.0643 14.5555 18.1837 14.4361 18.1837Z" fill="#070001"/>
<path d="M16.8641 15.0396C16.7447 15.0396 16.6253 14.9202 16.6253 14.8007C16.6253 14.5221 16.4263 14.3231 16.1477 14.3231C15.869 14.3231 15.67 14.5221 15.67 14.8007C15.67 14.9202 15.5506 15.0396 15.4312 15.0396C15.3118 15.0396 15.1924 14.9202 15.1924 14.8007C15.1924 14.2435 15.6302 13.8057 16.1875 13.8057C16.7447 13.8057 17.1826 14.2435 17.1826 14.8007C17.1029 14.9202 16.9835 15.0396 16.8641 15.0396Z" fill="#070001"/>
<path d="M14.4362 18.1832C13.7197 18.1832 13.1227 17.5861 13.1227 16.8697C13.1227 16.7503 13.2421 16.6309 13.3615 16.6309C13.4809 16.6309 13.6003 16.7503 13.6003 16.8697C13.6003 17.3075 13.9586 17.6657 14.3964 17.6657C14.8342 17.6657 15.1925 17.3075 15.1925 16.8697C15.1925 16.7503 15.3119 16.6309 15.4313 16.6309C15.5507 16.6309 15.6701 16.7503 15.6701 16.8697C15.7099 17.5861 15.1527 18.1832 14.4362 18.1832Z" fill="#070001"/>
<path d="M13.0431 15.4382C12.9635 15.4382 12.9237 15.3984 12.8839 15.3586L11.8092 14.2839V15.1994C11.8092 15.3188 11.6898 15.4382 11.5704 15.4382C11.451 15.4382 11.2917 15.3188 11.2917 15.1596V13.6868C11.2917 13.5674 11.3714 13.4878 11.451 13.448C11.5704 13.4082 11.65 13.4082 11.7296 13.4878L12.8043 14.5625V13.9257C12.8043 13.8063 12.9237 13.6868 13.0431 13.6868C13.1625 13.6868 13.2819 13.8063 13.2819 13.9257V15.1596C13.2819 15.279 13.2023 15.3586 13.1227 15.3984C13.1227 15.4382 13.0829 15.4382 13.0431 15.4382Z" fill="#070001"/>
<path d="M14.3964 14.1635C14.277 14.1635 14.1575 14.0441 14.1575 13.9246C14.1575 13.8848 14.1575 12.8898 13.4809 12.8898C13.3615 12.8898 13.2421 12.7703 13.2421 12.6509C13.2421 12.5315 13.3615 12.4121 13.4809 12.4121C14.3964 12.4121 14.6352 13.4072 14.6352 13.9246C14.6352 14.0441 14.5158 14.1635 14.3964 14.1635Z" fill="#070001"/>
</svg>
