<svg width="40" height="40" viewBox="0 0 40 40" fill="none" xmlns="http://www.w3.org/2000/svg">
<mask id="mask0_32_84" style="mask-type:alpha" maskUnits="userSpaceOnUse" x="0" y="0" width="40" height="40">
<circle cx="20" cy="20" r="20" fill="#EB0029"/>
</mask>
<g mask="url(#mask0_32_84)">
<circle cx="19.9995" cy="20.0012" r="19.0519" fill="#216C58" stroke="#216C58" stroke-width="1.8963"/>
<path d="M38.2451 20.0007C38.2451 30.0775 30.0763 38.2463 19.9995 38.2463C9.92274 38.2463 1.75391 30.0775 1.75391 20.0007C1.75391 9.92393 9.92274 1.7551 19.9995 1.7551C30.0763 1.7551 38.2451 9.92393 38.2451 20.0007Z" fill="#216C58"/>
<rect x="17.5464" y="28.7737" width="2.10526" height="2.10526" fill="#216C58"/>
<rect x="21.0547" y="28.7737" width="2.10526" height="2.10526" fill="#216C58"/>
<rect x="13.3345" y="7.01917" width="14.7368" height="1.75439" rx="0.877193" fill="white"/>
<path d="M20 9.47479L20 33.159C20 33.6435 19.6073 34.0362 19.1228 34.0362C18.6383 34.0362 18.2456 33.6435 18.2456 33.159L18.2456 9.47479L20 9.47479Z" fill="white"/>
<path d="M22.8086 9.47479L22.8086 33.159C22.8086 33.6435 22.4159 34.0362 21.9314 34.0362C21.4469 34.0362 21.0542 33.6435 21.0542 33.159L21.0542 9.47479L22.8086 9.47479Z" fill="white"/>
<path d="M24.8602 17.2971C24.5027 17.2971 24.2142 17.0227 24.0945 16.6858C23.9147 16.1799 23.5814 15.7673 23.0945 15.4482C22.4244 15.0089 21.5149 14.7893 20.3661 14.7893C19.5855 14.7893 18.9265 14.8876 18.3889 15.0843C17.8513 15.2744 17.4389 15.54 17.1517 15.8809C16.8719 16.2218 16.732 16.6087 16.732 17.0414C16.7172 17.402 16.8019 17.7167 16.986 17.9855C17.1775 18.2543 17.4389 18.4871 17.7703 18.6838C18.1017 18.8739 18.4846 19.0411 18.9191 19.1853C19.3536 19.323 19.8175 19.441 20.3109 19.5394L22.3434 19.9721C23.3302 20.1688 24.236 20.431 25.0607 20.7588C25.8855 21.0867 26.5998 21.4899 27.2037 21.9685C27.8075 22.4471 28.2752 23.011 28.6065 23.66C28.9453 24.3091 29.1184 25.0533 29.1257 25.8925C29.1184 27.1251 28.7649 28.1938 28.0653 29.0986C27.3731 29.9968 26.3715 30.695 25.0607 31.1933C23.7573 31.685 22.1851 31.9309 20.344 31.9309C18.5177 31.9309 16.9271 31.6818 15.5721 31.1835C14.2245 30.6852 13.1714 29.9476 12.4129 28.9707C11.7893 28.1543 11.4119 27.1774 11.2806 26.0401C11.2354 25.6481 11.5562 25.3221 11.9508 25.3221H15.2091C15.5759 25.3221 15.8709 25.6083 15.9667 25.9625C16.0748 26.3622 16.2562 26.7126 16.511 27.0136C16.9013 27.4595 17.4205 27.7971 18.0685 28.0266C18.7239 28.2495 19.464 28.361 20.2888 28.361C21.0989 28.361 21.8021 28.2561 22.3986 28.0463C23.0025 27.8365 23.4701 27.5447 23.8015 27.171C24.1329 26.7973 24.2986 26.3678 24.2986 25.8827C24.2986 25.4303 24.1476 25.05 23.8457 24.7418C23.5511 24.4337 23.1166 24.1714 22.5422 23.9551C21.9752 23.7387 21.2793 23.542 20.4545 23.365L17.9912 22.8143C16.0839 22.4012 14.578 21.7554 13.4733 20.8769C12.3687 19.9983 11.8201 18.8149 11.8275 17.3266C11.8201 16.1071 12.1846 15.0417 12.921 14.1304C13.6648 13.219 14.6847 12.5077 15.9808 11.9963C17.2769 11.4849 18.7497 11.2292 20.3993 11.2292C22.0783 11.2292 23.5437 11.4849 24.7956 11.9963C26.0549 12.5077 27.0343 13.219 27.7339 14.1304C28.2916 14.8568 28.634 15.675 28.7612 16.5848C28.8155 16.9736 28.4943 17.2971 28.1016 17.2971H24.8602Z" fill="white"/>
<path fill-rule="evenodd" clip-rule="evenodd" d="M18.6255 15.7457L18.6219 15.747C18.1721 15.9061 17.8777 16.1097 17.6903 16.3307C17.5133 16.5477 17.4327 16.7769 17.4327 17.0425V17.0568L17.4322 17.0711C17.423 17.2947 17.4733 17.4554 17.5606 17.585C17.6859 17.759 17.8669 17.926 18.1231 18.0788C18.4048 18.2399 18.7404 18.3877 19.1347 18.5189C19.541 18.6474 19.9782 18.7588 20.4471 18.8522L20.4516 18.8531L22.4841 19.2858C23.5054 19.4897 24.4511 19.7629 25.319 20.1078C26.1979 20.4571 26.9737 20.8926 27.6386 21.4196C28.3159 21.9564 28.8495 22.5966 29.2292 23.3392C29.6253 24.0995 29.8183 24.9547 29.8265 25.8874L29.8265 25.8926L29.8265 25.8978C29.8183 27.2714 29.4208 28.4924 28.6197 29.5286C27.8315 30.5511 26.7123 31.317 25.3091 31.8503L25.3075 31.851C23.904 32.3805 22.243 32.6337 20.3431 32.6337C18.4551 32.6337 16.779 32.3764 15.3289 31.8432L15.3278 31.8428C13.8775 31.3065 12.7088 30.4983 11.8577 29.4021L11.856 29.3999L11.8543 29.3977C11.1454 28.4696 10.7266 27.3698 10.5825 26.1216C10.4842 25.2698 11.1806 24.6214 11.9498 24.6214H15.2081C15.969 24.6214 16.4866 25.2015 16.6432 25.7804C16.7252 26.0838 16.8589 26.3393 17.042 26.5569C17.3401 26.8958 17.7492 27.1698 18.2977 27.3647C18.867 27.5577 19.5275 27.6603 20.2878 27.6603C21.0398 27.6603 21.6608 27.5626 22.1648 27.3853L22.1661 27.3849L22.1673 27.3844C22.6888 27.2033 23.0431 26.9685 23.2755 26.7065C23.4967 26.457 23.5958 26.1918 23.5958 25.8837C23.5958 25.6051 23.5101 25.4041 23.3435 25.234L23.3404 25.231L23.3374 25.2278C23.1403 25.0216 22.81 24.8073 22.2939 24.6129L22.2925 24.6123L22.2911 24.6118C21.7676 24.4121 21.1084 24.2244 20.3063 24.0522L20.3033 24.0516L17.8417 23.5012C17.8409 23.501 17.8402 23.5009 17.8394 23.5007C15.8658 23.073 14.2499 22.393 13.0356 21.4272C11.7532 20.4073 11.1174 19.0161 11.1247 17.328C11.1172 15.9553 11.5324 14.7322 12.3742 13.6904L12.3753 13.689L12.3764 13.6877C13.209 12.6676 14.3352 11.8919 15.7223 11.3445C17.114 10.7954 18.6765 10.5285 20.3983 10.5285C22.1468 10.5285 23.7058 10.7946 25.0595 11.3475C26.4127 11.8972 27.5013 12.6772 28.2896 13.7041C28.9214 14.5271 29.3113 15.4591 29.4552 16.4887C29.5767 17.3581 28.8583 17.9999 28.1007 17.9999H24.8592C24.1144 17.9999 23.6173 17.4426 23.4323 16.9219C23.3082 16.5726 23.079 16.2788 22.7088 16.0362C22.1926 15.6977 21.4338 15.4921 20.3652 15.4921C19.6389 15.4921 19.0669 15.5842 18.629 15.7444L18.6255 15.7457ZM24.7947 11.9973C23.5428 11.4859 22.0773 11.2302 20.3983 11.2302C18.7488 11.2302 17.2759 11.4859 15.9799 11.9973C14.6838 12.5087 13.6638 13.2201 12.9201 14.1314C12.1837 15.0428 11.8191 16.1082 11.8265 17.3277C11.8191 18.816 12.3678 19.9994 13.4724 20.8779C14.577 21.7565 16.083 22.4023 17.9903 22.8153L20.4535 23.3661C21.2783 23.5431 21.9742 23.7398 22.5413 23.9562C23.1157 24.1725 23.5501 24.4348 23.8447 24.7429C24.1466 25.0511 24.2976 25.4313 24.2976 25.8837C24.2976 26.3689 24.1319 26.7983 23.8005 27.1721C23.4691 27.5458 23.0015 27.8375 22.3977 28.0473C21.8012 28.2571 21.0979 28.362 20.2878 28.362C19.4631 28.362 18.723 28.2506 18.0676 28.0277C17.4195 27.7982 16.9004 27.4605 16.5101 27.0147C16.2553 26.7137 16.0738 26.3633 15.9657 25.9635C15.87 25.6094 15.575 25.3232 15.2081 25.3232H11.9498C11.5553 25.3232 11.2344 25.6492 11.2797 26.0412C11.4109 27.1784 11.7884 28.1553 12.412 28.9718C13.1705 29.9487 14.2235 30.6863 15.5711 31.1846C16.9261 31.6828 18.5168 31.932 20.3431 31.932C22.1841 31.932 23.7563 31.6861 25.0598 31.1944C26.3706 30.6961 27.3721 29.9979 28.0643 29.0996C28.7639 28.1948 29.1174 27.1262 29.1248 25.8936C29.1174 25.0543 28.9443 24.3102 28.6056 23.6611C28.2742 23.012 27.8066 22.4482 27.2027 21.9696C26.5989 21.491 25.8846 21.0877 25.0598 20.7599C24.235 20.4321 23.3292 20.1698 22.3424 19.9732L20.3099 19.5404C19.8165 19.4421 19.3526 19.3241 18.9181 19.1864C18.4836 19.0421 18.1007 18.875 17.7693 18.6848C17.4379 18.4881 17.1765 18.2554 16.9851 17.9866C16.801 17.7178 16.7163 17.4031 16.731 17.0425C16.731 16.6097 16.8709 16.2229 17.1507 15.882C17.4379 15.541 17.8503 15.2755 18.3879 15.0854C18.9255 14.8887 19.5846 14.7903 20.3652 14.7903C21.514 14.7903 22.4234 15.01 23.0936 15.4493C23.5804 15.7684 23.9137 16.1809 24.0935 16.6869C24.2132 17.0238 24.5017 17.2982 24.8592 17.2982H28.1007C28.4933 17.2982 28.8146 16.9747 28.7602 16.5858C28.633 15.676 28.2906 14.8579 27.7329 14.1314C27.0334 13.2201 26.0539 12.5087 24.7947 11.9973Z" fill="#216C58"/>
<rect x="18.2437" y="14.0354" width="1.75439" height="2.45614" fill="white"/>
<rect x="18.2437" y="22.8076" width="1.75439" height="2.45614" fill="white"/>
<rect x="18.2437" y="30.1763" width="1.75439" height="2.45614" fill="white"/>
<rect x="21.0547" y="14.0354" width="1.75439" height="2.45614" fill="white"/>
<rect x="21.0547" y="22.8076" width="1.75439" height="2.45614" fill="white"/>
<rect x="21.0547" y="30.1763" width="1.75439" height="2.45614" fill="white"/>
<path fill-rule="evenodd" clip-rule="evenodd" d="M37.6576 21.0533C37.3787 21.0533 37.1489 21.2716 37.1241 21.5493C36.3412 30.3191 28.9734 37.1937 19.9999 37.1937C11.0265 37.1937 3.65866 30.3191 2.87575 21.5493C2.85096 21.2716 2.62113 21.0533 2.34228 21.0533C2.03931 21.0533 1.79802 21.3092 1.82441 21.611C2.63964 30.9336 10.4658 38.2463 19.9999 38.2463C29.5341 38.2463 37.3602 30.9336 38.1755 21.611C38.2019 21.3092 37.9606 21.0533 37.6576 21.0533ZM2.34228 18.9481C2.62113 18.9481 2.85096 18.7298 2.87575 18.4521C3.65866 9.68228 11.0265 2.80773 19.9999 2.80773C28.9734 2.80773 36.3412 9.68228 37.1241 18.4521C37.1489 18.7298 37.3787 18.9481 37.6576 18.9481C37.9606 18.9481 38.2019 18.6922 38.1755 18.3904C37.3602 9.06784 29.5341 1.7551 19.9999 1.7551C10.4658 1.7551 2.63963 9.06784 1.82441 18.3904C1.79802 18.6922 2.03931 18.9481 2.34228 18.9481Z" fill="white"/>
</g>
</svg>
