<?xml version="1.0" encoding="UTF-8"?>
<svg width="22px" height="22px" viewBox="0 0 22 22" version="1.1" xmlns="http://www.w3.org/2000/svg" xmlns:xlink="http://www.w3.org/1999/xlink">
    <title>销毁</title>
    <defs>
        <rect id="path-1" x="0" y="7" width="22" height="15" rx="2"></rect>
        <filter x="-18.2%" y="-40.0%" width="136.4%" height="153.3%" filterUnits="objectBoundingBox" id="filter-2">
            <feOffset dx="0" dy="-2" in="SourceAlpha" result="shadowOffsetOuter1"></feOffset>
            <feGaussianBlur stdDeviation="1" in="shadowOffsetOuter1" result="shadowBlurOuter1"></feGaussianBlur>
            <feComposite in="shadowBlurOuter1" in2="SourceAlpha" operator="out" result="shadowBlurOuter1"></feComposite>
            <feColorMatrix values="0 0 0 0 0.118805823   0 0 0 0 0.118805823   0 0 0 0 0.162279212  0 0 0 0.197392817 0" type="matrix" in="shadowBlurOuter1"></feColorMatrix>
        </filter>
    </defs>
    <g id="页面-1" stroke="none" stroke-width="1" fill="none" fill-rule="evenodd">
        <g id="更多" transform="translate(-39.000000, -633.000000)">
            <g id="编组-7备份-4" transform="translate(39.000000, 633.000000)">
                <rect id="矩形" fill="#8B5AEA" transform="translate(11.000000, 8.000000) rotate(-360.000000) translate(-11.000000, -8.000000) " x="3" y="0" width="16" height="16" rx="2"></rect>
                <g id="矩形备份-3">
                    <use fill="black" fill-opacity="1" filter="url(#filter-2)" xlink:href="#path-1"></use>
                    <rect stroke-opacity="0.295454545" stroke="#FFFFFF" stroke-width="1" stroke-linejoin="square" fill-opacity="0.3" fill="#8B5AEA" fill-rule="evenodd" x="0.5" y="7.5" width="21" height="14" rx="2"></rect>
                </g>
                <rect id="矩形备份-14" fill="#FFFFFF" transform="translate(11.000000, 13.000000) rotate(-270.000000) translate(-11.000000, -13.000000) " x="10" y="4" width="2" height="18" rx="1"></rect>
                <rect id="矩形" fill="#FFFFFF" x="4" y="16" width="2" height="4" rx="1"></rect>
                <rect id="矩形备份-20" fill="#FFFFFF" x="18" y="9" width="2" height="2" rx="1"></rect>
                <rect id="矩形备份-21" fill="#FFFFFF" x="15" y="9" width="2" height="2" rx="1"></rect>
                <rect id="矩形备份-17" fill="#FFFFFF" x="16" y="16" width="2" height="4" rx="1"></rect>
                <rect id="矩形备份-18" fill="#FFFFFF" x="12" y="17" width="2" height="3" rx="1"></rect>
                <rect id="矩形备份-19" fill="#FFFFFF" x="8" y="15" width="2" height="5" rx="1"></rect>
            </g>
        </g>
    </g>
</svg>