<?xml version="1.0" encoding="UTF-8"?>
<svg width="22px" height="23px" viewBox="0 0 22 23" version="1.1" xmlns="http://www.w3.org/2000/svg" xmlns:xlink="http://www.w3.org/1999/xlink">
    <title>风险</title>
    <defs>
        <path d="M15,5.26768549 L20.7942286,8.61298495 C21.4130308,8.97025054 21.7942286,9.63050458 21.7942286,10.3450358 L21.7942286,17.0356347 C21.7942286,17.7501659 21.4130308,18.4104199 20.7942286,18.7676855 L15,22.1129849 C14.3811978,22.4702505 13.6188022,22.4702505 13,22.1129849 L7.20577137,18.7676855 C6.58696921,18.4104199 6.20577137,17.7501659 6.20577137,17.0356347 L6.20577137,10.3450358 C6.20577137,9.63050458 6.58696921,8.97025054 7.20577137,8.61298495 L13,5.26768549 C13.6188022,4.9104199 14.3811978,4.9104199 15,5.26768549 Z" id="path-1"></path>
        <filter x="-25.0%" y="-25.0%" width="138.9%" height="138.9%" filterUnits="objectBoundingBox" id="filter-2">
            <feOffset dx="-1" dy="-1" in="SourceAlpha" result="shadowOffsetOuter1"></feOffset>
            <feGaussianBlur stdDeviation="1" in="shadowOffsetOuter1" result="shadowBlurOuter1"></feGaussianBlur>
            <feComposite in="shadowBlurOuter1" in2="SourceAlpha" operator="out" result="shadowBlurOuter1"></feComposite>
            <feColorMatrix values="0 0 0 0 0.118805823   0 0 0 0 0.118805823   0 0 0 0 0.162279212  0 0 0 0.197392817 0" type="matrix" in="shadowBlurOuter1"></feColorMatrix>
        </filter>
    </defs>
    <g id="页面-1" stroke="none" stroke-width="1" fill="none" fill-rule="evenodd">
        <g id="更多" transform="translate(-39.000000, -581.000000)">
            <g id="编组-19" transform="translate(39.000000, 581.309665)">
                <path d="M9.28025,1.74514131 C9.49069939,1.68135191 9.71406447,1.67309332 9.92864727,1.72116779 L10.01975,1.74516124 L16.39475,3.67759042 C16.9067422,3.83277064 17.2645988,4.28978207 17.2975297,4.81837529 L17.3,4.89816746 L17.3,11.8648965 C17.3,15.0052683 14.8097258,17.238612 10.0242324,18.5873069 L9.65,18.6903352 L9.48225781,18.6445603 C4.63122148,17.3211343 2.07263516,15.1133982 2.00153398,11.998933 L2,11.8648965 L2,4.89816746 C2,4.36301789 2.33345234,3.88789181 2.82962656,3.70307848 L2.90525,3.67757049 L9.28025,1.74514131 Z" id="路径" fill="#8B5AEA" transform="translate(9.650000, 10.190335) rotate(-15.000000) translate(-9.650000, -10.190335) "></path>
                <g id="多边形">
                    <use fill="black" fill-opacity="1" filter="url(#filter-2)" xlink:href="#path-1"></use>
                    <path stroke-opacity="0.295454545" stroke="#FFFFFF" stroke-width="1" d="M14,5.4997363 C14.2589746,5.4997363 14.5179492,5.56672359 14.75,5.70069819 L14.75,5.70069819 L20.5442286,9.04599765 C20.7762794,9.17997225 20.9637794,9.37075718 21.0932667,9.59503576 C21.222754,9.81931434 21.2942286,10.0770866 21.2942286,10.3450358 L21.2942286,10.3450358 L21.2942286,17.0356347 C21.2942286,17.3035839 21.222754,17.5613561 21.0932667,17.7856347 C20.9637794,18.0099133 20.7762794,18.2006982 20.5442286,18.3346728 L20.5442286,18.3346728 L14.75,21.6799722 C14.2858984,21.9479214 13.7141016,21.9479214 13.25,21.6799722 L13.25,21.6799722 L7.45577137,18.3346728 C7.22372056,18.2006982 7.03622056,18.0099133 6.90673326,17.7856347 C6.77724596,17.5613561 6.70577137,17.3035839 6.70577137,17.0356347 L6.70577137,17.0356347 L6.70577137,10.3450358 C6.70577137,10.0770866 6.77724596,9.81931434 6.90673326,9.59503576 C7.03622056,9.37075718 7.22372056,9.17997225 7.45577137,9.04599765 L7.45577137,9.04599765 L13.25,5.70069819 C13.4820508,5.56672359 13.7410254,5.4997363 14,5.4997363 Z" stroke-linejoin="square" fill-opacity="0.3" fill="#8B5AEA" fill-rule="evenodd"></path>
                </g>
                <path d="M16.2441838,10.9000211 L17.1570058,13.2552638 L17.1570058,13.2552638 L18.1493005,13.2553244 C18.6722154,13.2553563 19.0961049,13.6792716 19.0961049,14.2021865 C19.0961049,14.7250922 18.6722061,15.1489909 18.1493005,15.1489909 L16.5457737,15.1489909 C16.1329643,15.1489909 15.7625811,14.8953293 15.6133768,14.5104272 L15.2437878,13.5569985 L15.2437878,13.5569985 L13.6828645,16.9717461 C13.4532594,17.4740408 12.8599374,17.6950994 12.3576427,17.4654943 C12.1751995,17.3820972 12.0220553,17.2457574 11.918108,17.0741895 L10.7825999,15.2 L10.7825999,15.2 L9.94680435,15.2002359 C9.42404627,15.2003834 9.00014754,14.7767238 9.00000004,14.2539657 C9.00000001,14.2538767 9,14.2537876 9,14.2536986 C9,13.730793 9.42389876,13.3068942 9.94680439,13.3068942 L11.2861596,13.3068942 C11.635894,13.3068942 11.9602165,13.4896052 12.141438,13.7887254 L12.6629859,14.6495812 L12.6629859,14.6495812 L14.4023224,10.8455683 C14.6319794,10.3432974 15.2253242,10.1223001 15.7275952,10.3519571 C15.964636,10.460341 16.1499927,10.6569914 16.2441838,10.9000211 Z" id="路径" fill="#FFFFFF" fill-rule="nonzero"></path>
            </g>
        </g>
    </g>
</svg>