<?xml version="1.0" encoding="UTF-8"?>
<svg width="22px" height="22px" viewBox="0 0 22 22" version="1.1" xmlns="http://www.w3.org/2000/svg" xmlns:xlink="http://www.w3.org/1999/xlink">
    <title>主题 暗色</title>
    <defs>
        <circle id="path-1" cx="13" cy="13.0000064" r="9"></circle>
        <filter x="-25.0%" y="-25.0%" width="138.9%" height="138.9%" filterUnits="objectBoundingBox" id="filter-2">
            <feOffset dx="-1" dy="-1" in="SourceAlpha" result="shadowOffsetOuter1"></feOffset>
            <feGaussianBlur stdDeviation="1" in="shadowOffsetOuter1" result="shadowBlurOuter1"></feGaussianBlur>
            <feComposite in="shadowBlurOuter1" in2="SourceAlpha" operator="out" result="shadowBlurOuter1"></feComposite>
            <feColorMatrix values="0 0 0 0 0.118805823   0 0 0 0 0.118805823   0 0 0 0 0.162279212  0 0 0 0.197392817 0" type="matrix" in="shadowBlurOuter1"></feColorMatrix>
        </filter>
    </defs>
    <g id="页面-1" stroke="none" stroke-width="1" fill="none" fill-rule="evenodd">
        <g id="M-更多-浅色" transform="translate(-11.000000, -751.000000)">
            <g id="编组-18备份-2" transform="translate(11.000000, 750.999994)">
                <path d="M10.0928252,0.000741134301 C9.17071977,-0.0309081953 8.59173521,0.957639069 9.08938744,1.71277248 L9.23680231,1.93679044 C10.117977,3.3211597 10.5830348,4.91792959 10.5792942,6.54621972 C10.5792942,11.3940081 6.53961865,15.3239656 1.556488,15.3239656 C1.447706,15.3239656 1.34095731,15.3219876 1.23522526,15.3185259 C0.306003304,15.285393 -0.272981284,16.2872923 0.238395782,17.0424257 C2.32888364,20.1387017 5.88185714,22.0023684 9.68972177,22 C15.9360453,22 21,17.0735806 21,10.9969078 C21,5.06611867 16.1683508,0.207945398 10.0928252,0.000741134301 L10.0928252,0.000741134301 Z" id="路径" fill="#8B5AEA" transform="translate(10.523806, 11.000000) scale(-1, 1) translate(-10.523806, -11.000000) "></path>
                <g id="椭圆形">
                    <use fill="black" fill-opacity="1" filter="url(#filter-2)" xlink:href="#path-1"></use>
                    <circle stroke-opacity="0.295454545" stroke="#FFFFFF" stroke-width="1" stroke-linejoin="square" fill-opacity="0.3" fill="#8B5AEA" fill-rule="evenodd" cx="13" cy="13.0000064" r="8.5"></circle>
                </g>
                <path d="M13.5084267,9.70067965 L13.5687328,9.79232336 C13.9292134,10.3586562 14.1194643,11.0118803 14.117934,11.677999 C14.117934,13.6611851 12.4653395,15.268895 10.426786,15.268895 C10.3822843,15.268895 10.3386144,15.2680858 10.2953604,15.2666697 C9.91522412,15.2531153 9.67836679,15.6629832 9.8875665,15.9719014 C10.7427661,17.2385598 12.1962552,18.0009689 13.754018,18 C16.3093322,18 18.38095,15.9846466 18.38095,13.498735 C18.38095,11.0725031 16.4043663,9.08506857 13.918924,9.00030319 C13.541699,8.98735574 13.3048417,9.39176144 13.5084267,9.70067965 Z" id="路径" fill="#FFFFFF"></path>
                <path d="M8.05025253,11.5355339 L8.05025253,11.5355339 L8.05025253,11.5355339 C8.81430033,10.74752 8.81430033,9.49512068 8.05025253,8.70710678 L8.05025253,8.70710678 L8.05025253,8.70710678 C8.83826643,9.47115458 10.0906658,9.47115458 10.8786797,8.70710678 L10.8786797,8.70710678 L10.8786797,8.70710678 C10.1146319,9.49512068 10.1146319,10.74752 10.8786797,11.5355339 L10.8786797,11.5355339 L10.8786797,11.5355339 C10.0906658,10.7714861 8.83826643,10.7714861 8.05025253,11.5355339 Z" id="星形" fill="#FFFFFF" transform="translate(9.464466, 10.121320) rotate(-315.000000) translate(-9.464466, -10.121320) "></path>
            </g>
        </g>
    </g>
</svg>