<svg width="28" height="28" viewBox="0 0 28 28" fill="none" xmlns="http://www.w3.org/2000/svg">
<path d="M14 28C21.7588 28 28 21.7588 28 14C28 6.2412 21.7588 0 14 0C6.2412 0 0 6.2412 0 14C0 21.7588 6.2412 28 14 28Z" fill="#2775CA"/>
<path d="M17.85 16.2162C17.85 14.175 16.625 13.475 14.175 13.1824C12.425 12.9486 12.075 12.4824 12.075 11.6662C12.075 10.85 12.6588 10.325 13.825 10.325C14.875 10.325 15.4588 10.675 15.75 11.55C15.8088 11.725 15.9838 11.8412 16.1588 11.8412H17.0926C17.3264 11.8412 17.5014 11.6662 17.5014 11.4324V11.3736C17.2676 10.0898 16.2176 9.09861 14.8764 8.98241V7.58241C14.8764 7.34861 14.7014 7.17361 14.4102 7.11621H13.5352C13.3014 7.11621 13.1264 7.29121 13.069 7.58241V8.92361C11.319 9.15741 10.2102 10.3236 10.2102 11.7824C10.2102 13.7074 11.3764 14.4662 13.8264 14.7574C15.4602 15.0486 15.9852 15.3986 15.9852 16.3324C15.9852 17.2662 15.169 17.9074 14.0602 17.9074C12.544 17.9074 12.019 17.2662 11.844 16.3912C11.7852 16.1574 11.6102 16.0412 11.4352 16.0412H10.444C10.2102 16.0412 10.0352 16.2162 10.0352 16.45V16.5088C10.269 17.9676 11.2014 19.0176 13.1264 19.3088V20.7088C13.1264 20.9426 13.3014 21.1176 13.5926 21.175H14.4676C14.7014 21.175 14.8764 21 14.9338 20.7088V19.3088C16.6824 19.0162 17.85 17.7912 17.85 16.2162Z" fill="white"/>
<path d="M11.025 22.3412C6.47502 20.7074 4.14122 15.6324 5.83382 11.1412C6.70882 8.69121 8.63382 6.82501 11.025 5.95001C11.2588 5.83381 11.375 5.65881 11.375 5.36621V4.55001C11.375 4.31621 11.2588 4.14121 11.025 4.08381C10.9662 4.08381 10.85 4.08381 10.7912 4.14261C5.25002 5.89261 2.21622 11.7838 3.96622 17.3264C5.01622 20.5926 7.52502 23.1014 10.7912 24.1514C11.025 24.2676 11.2574 24.1514 11.3162 23.9176C11.375 23.8588 11.375 23.8014 11.375 23.6838V22.8676C11.375 22.6912 11.2 22.4588 11.025 22.3412ZM17.2074 4.14121C16.9736 4.02501 16.7412 4.14121 16.6824 4.37501C16.6236 4.43381 16.6236 4.49121 16.6236 4.60881V5.42501C16.6236 5.65881 16.7986 5.89121 16.9736 6.00881C21.5236 7.64261 23.8574 12.7176 22.1648 17.2088C21.2898 19.6588 19.3648 21.525 16.9736 22.4C16.7398 22.5162 16.6236 22.6912 16.6236 22.9838V23.8C16.6236 24.0338 16.7398 24.2088 16.9736 24.2662C17.0324 24.2662 17.1486 24.2662 17.2074 24.2074C22.7486 22.4574 25.7824 16.5662 24.0324 11.0236C22.9824 7.70001 20.4162 5.19121 17.2074 4.14121Z" fill="white"/>
</svg>
