<svg width="100" height="100" viewBox="0 0 100 100" fill="none" xmlns="http://www.w3.org/2000/svg">
<circle cx="50" cy="50" r="50" fill="#216C58"/>
<rect x="43.8596" y="71.9299" width="5.26316" height="5.26316" fill="#216C58"/>
<rect x="52.6316" y="71.9299" width="5.26316" height="5.26316" fill="#216C58"/>
<rect x="33.3333" y="17.5439" width="36.8421" height="4.38596" rx="2.19298" fill="white"/>
<path fill-rule="evenodd" clip-rule="evenodd" d="M50 82.8949L50 23.6843H45.614L45.614 82.8949C45.614 84.106 46.5958 85.0878 47.807 85.0878C49.0181 85.0878 50 84.106 50 82.8949ZM57.0176 82.8949L57.0176 23.6843H52.6316L52.6316 82.8949C52.6316 84.106 53.6134 85.0878 54.8246 85.0878C56.0357 85.0878 57.0176 84.106 57.0176 82.8949Z" fill="white"/>
<path fill-rule="evenodd" clip-rule="evenodd" d="M46.5588 39.3588L46.5499 39.3619C45.4254 39.7596 44.6893 40.2689 44.2209 40.8212C43.7784 41.3638 43.577 41.9368 43.577 42.6006V42.6364L43.5755 42.6722C43.5527 43.2314 43.6785 43.6329 43.8967 43.957C44.2098 44.392 44.6623 44.8095 45.303 45.1914C46.007 45.5942 46.8461 45.9637 47.8319 46.2917C48.8475 46.613 49.9406 46.8914 51.1129 47.125L51.1241 47.1273L56.2054 48.2091C58.7587 48.7186 61.123 49.4016 63.2926 50.264C65.4898 51.1373 67.4295 52.2261 69.0917 53.5435C70.7848 54.8855 72.1189 56.486 73.068 58.3425C74.0584 60.2433 74.5409 62.3812 74.5613 64.713L74.5614 64.7259L74.5614 64.7389C74.5408 68.1731 73.5471 71.2255 71.5444 73.816C69.5739 76.3721 66.7758 78.2869 63.2679 79.6204L63.2638 79.6219C59.755 80.9456 55.6027 81.5788 50.8528 81.5788C46.1328 81.5788 41.9426 80.9356 38.3175 79.6025L38.3146 79.6014C34.6889 78.2608 31.7671 76.2403 29.6393 73.4999L29.635 73.4944L29.6308 73.4888C27.8586 71.1685 26.8116 68.419 26.4515 65.2986C26.2057 63.1689 27.9466 61.548 29.8697 61.548H38.0154C39.9176 61.548 41.2117 62.9982 41.603 64.4454C41.8081 65.2039 42.1424 65.8428 42.6001 66.3867C43.3453 67.2339 44.3681 67.9191 45.7394 68.4063C47.1626 68.8888 48.8139 69.1452 50.7147 69.1452C52.5946 69.1452 54.1471 68.901 55.4072 68.4578L55.4103 68.4567L55.4135 68.4556C56.717 68.0027 57.6029 67.4157 58.1838 66.7607C58.7369 66.1369 58.9847 65.4741 58.9847 64.7038C58.9847 64.0072 58.7703 63.5048 58.3538 63.0796L58.3462 63.0719L58.3387 63.0641C57.8458 62.5484 57.0202 62.0127 55.7299 61.5267L55.7263 61.5253L55.7228 61.524C54.4141 61.0246 52.7662 60.5554 50.7608 60.125L50.7535 60.1234L44.5994 58.7475C44.5975 58.7471 44.5955 58.7466 44.5936 58.7462C39.6597 57.6771 35.62 55.977 32.584 53.5624C29.3782 51.0126 27.7885 47.5348 27.807 43.3146C27.7882 39.8828 28.8261 36.8249 30.9307 34.2204L30.9334 34.2171L30.9361 34.2138C33.0176 31.6634 35.8331 29.7241 39.3008 28.3559C42.78 26.9831 46.6863 26.3157 50.9909 26.3157C55.3622 26.3157 59.2597 26.981 62.6439 28.3632C66.0269 29.7374 68.7484 31.6876 70.7191 34.2548C72.2986 36.3124 73.2734 38.6423 73.6331 41.2163C73.9369 43.3897 72.1408 44.9943 70.2468 44.9943H62.1432C60.2811 44.9943 59.0384 43.6011 58.5758 42.2992C58.2655 41.426 57.6926 40.6915 56.7672 40.0849C55.4765 39.2388 53.5796 38.7247 50.908 38.7247C49.0925 38.7247 47.6624 38.955 46.5677 39.3555L46.5588 39.3588ZM61.9818 29.9878C58.8521 28.7093 55.1884 28.0701 50.9909 28.0701C46.867 28.0701 43.185 28.7093 39.9448 29.9878C36.7046 31.2663 34.1547 33.0447 32.2953 35.3231C30.4543 37.6014 29.543 40.2649 29.5614 43.3136C29.543 47.0344 30.9145 49.9929 33.6761 52.1893C36.4376 54.3857 40.2025 56.0002 44.9707 57.0328L51.129 58.4097C53.1909 58.8522 54.9307 59.344 56.3483 59.8849C57.7843 60.4258 58.8705 61.0814 59.6069 61.8518C60.3617 62.6222 60.7391 63.5728 60.7391 64.7038C60.7391 65.9167 60.3249 66.9903 59.4964 67.9246C58.668 68.8589 57.4989 69.5883 55.9893 70.1128C54.498 70.6373 52.7399 70.8996 50.7147 70.8996C48.6528 70.8996 46.8026 70.6209 45.1641 70.0636C43.544 69.49 42.246 68.6458 41.2703 67.5312C40.6333 66.7787 40.1796 65.9027 39.9094 64.9033C39.6701 64.018 38.9325 63.3024 38.0154 63.3024H29.8697C28.8833 63.3024 28.0812 64.1175 28.1943 65.0974C28.5225 67.9406 29.466 70.3828 31.025 72.4239C32.9213 74.8662 35.5539 76.7102 38.923 77.9559C42.3105 79.2016 46.2871 79.8244 50.8528 79.8244C55.4554 79.8244 59.386 79.2098 62.6446 77.9805C65.9216 76.7348 68.4254 74.9891 70.1559 72.7436C71.9049 70.4816 72.7886 67.8099 72.807 64.7284C72.7886 62.6304 72.356 60.77 71.5091 59.1473C70.6806 57.5246 69.5116 56.115 68.0019 54.9184C66.4923 53.7219 64.7065 52.7138 62.6446 51.8943C60.5826 51.0747 58.3182 50.4191 55.8512 49.9274L50.77 48.8456C49.5365 48.5997 48.3766 48.3047 47.2904 47.9605C46.2042 47.5999 45.2469 47.1819 44.4184 46.7066C43.59 46.2148 42.9364 45.633 42.4578 44.9609C41.9975 44.2889 41.7858 43.5021 41.8226 42.6006C41.8226 41.5188 42.1724 40.5518 42.872 39.6994C43.59 38.8471 44.621 38.1833 45.9649 37.7079C47.3088 37.2162 48.9566 36.9703 50.908 36.9703C53.78 36.9703 56.0537 37.5194 57.729 38.6176C58.9461 39.4154 59.7794 40.4468 60.2289 41.7118C60.5282 42.5539 61.2495 43.2399 62.1432 43.2399H70.2468C71.2283 43.2399 72.0315 42.4312 71.8956 41.4591C71.5777 39.1846 70.7217 37.1393 69.3275 35.3231C67.5785 33.0447 65.1299 31.2663 61.9818 29.9878Z" fill="#216C58"/>
<rect x="45.614" y="75.4387" width="4.38596" height="6.14035" fill="white"/>
<path fill-rule="evenodd" clip-rule="evenodd" d="M62.1432 43.2401C61.2494 43.2401 60.5281 42.5542 60.2289 41.712C59.7794 40.4471 58.9461 39.4157 57.729 38.6179C57.5028 38.4696 57.2656 38.3313 57.0176 38.203V41.2282H52.6316V37.0427C52.0832 36.9946 51.5087 36.9706 50.908 36.9706C50.5976 36.9706 50.295 36.9768 50 36.9892V41.2282H45.614V37.8394C44.4402 38.303 43.5261 38.9231 42.8719 39.6997C42.1724 40.552 41.8226 41.5191 41.8226 42.6009C41.7857 43.5024 41.9975 44.2891 42.4577 44.9612C42.9364 45.6332 43.5899 46.2151 44.4184 46.7068C45.2469 47.1821 46.2042 47.6001 47.2904 47.9607C48.3766 48.3049 49.5364 48.6 50.7699 48.8458L55.8512 49.9276C58.3181 50.4194 60.5826 51.075 62.6445 51.8945C64.7065 52.7141 66.4923 53.7221 68.0019 54.9187C69.5115 56.1152 70.6806 57.5248 71.509 59.1475C72.3559 60.7702 72.7886 62.6306 72.807 64.7286C72.7886 67.8101 71.9049 70.4819 70.1559 72.7438C68.4253 74.9894 65.9215 76.735 62.6445 77.9807C59.3859 79.21 55.4553 79.8247 50.8528 79.8247C46.287 79.8247 42.3104 79.2018 38.9229 77.9561C35.5539 76.7104 32.9212 74.8664 31.025 72.4242C29.466 70.383 28.5224 67.9409 28.1943 65.0976C28.0812 64.1178 28.8833 63.3026 29.8697 63.3026H38.0154C38.9325 63.3026 39.67 64.0182 39.9094 64.9036C40.1796 65.9029 40.6332 66.7789 41.2703 67.5315C42.246 68.6461 43.5439 69.4902 45.164 70.0639C46.8025 70.6212 48.6528 70.8998 50.7147 70.8998C52.7398 70.8998 54.498 70.6376 55.9892 70.1131C57.4989 69.5886 58.6679 68.8592 59.4964 67.9249C60.3248 66.9906 60.7391 65.917 60.7391 64.7041C60.7391 63.5731 60.3617 62.6224 59.6068 61.852C58.9895 61.2063 58.1264 60.6411 57.0176 60.1566V63.1579H52.6316V58.7552C52.1513 58.6369 51.6504 58.5219 51.1289 58.4099L50 58.1575V63.1579H45.614V57.1769L44.9707 57.0331C40.2025 56.0005 36.4376 54.386 33.676 52.1896C30.9145 49.9932 29.5429 47.0346 29.5614 43.3139C29.5429 40.2652 30.4542 37.6016 32.2953 35.3233C34.1547 33.045 36.7045 31.2665 39.9447 29.9881C43.1849 28.7096 46.867 28.0703 50.9909 28.0703C55.1884 28.0703 58.852 28.7096 61.9818 29.9881C65.1299 31.2665 67.5785 33.045 69.3274 35.3233C70.7216 37.1395 71.5777 39.1849 71.8956 41.4594C72.0315 42.4315 71.2283 43.2401 70.2467 43.2401H62.1432Z" fill="white"/>
<rect x="52.6316" y="75.4387" width="4.38596" height="6.14035" fill="white"/>
<path fill-rule="evenodd" clip-rule="evenodd" d="M94.1443 52.6316C93.4472 52.6316 92.8726 53.1772 92.8106 53.8716C90.8534 75.7961 72.4338 92.9825 50.0002 92.9825C27.5665 92.9825 9.14696 75.7961 7.1897 53.8716C7.12771 53.1772 6.55314 52.6316 5.85601 52.6316V52.6316C5.0986 52.6316 4.49536 53.2713 4.56134 54.0258C6.59941 77.3322 26.1648 95.6141 50.0002 95.6141C73.8355 95.6141 93.4009 77.3322 95.439 54.0258C95.505 53.2713 94.9017 52.6316 94.1443 52.6316V52.6316ZM5.85601 47.3684C6.55314 47.3684 7.12771 46.8229 7.1897 46.1285C9.14696 24.2039 27.5665 7.01757 50.0002 7.01757C72.4338 7.01757 90.8534 24.2039 92.8106 46.1285C92.8726 46.8229 93.4472 47.3684 94.1443 47.3684V47.3684C94.9017 47.3684 95.505 46.7288 95.439 45.9742C93.4009 22.6679 73.8355 4.38599 50.0002 4.38599C26.1648 4.38599 6.59941 22.6679 4.56134 45.9742C4.49536 46.7288 5.0986 47.3684 5.85601 47.3684V47.3684Z" fill="white"/>
</svg>
