<svg width="34" height="34" viewBox="0 0 34 34" fill="none" xmlns="http://www.w3.org/2000/svg">
<circle cx="17" cy="17" r="16" fill="#080E21" stroke="white"/>
<path d="M23.0523 7C22.9798 7.00016 22.9086 7.02085 22.8458 7.05986C22.8458 7.05986 21.7164 7.75353 21.237 8.03722C20.8441 8.26975 20.8156 8.54961 20.8179 8.64417C20.8156 8.73873 20.8441 9.0186 21.237 9.25112C21.7164 9.53482 22.8455 10.2288 22.8455 10.2288C22.9083 10.2678 22.9798 10.2881 23.0523 10.2882C23.1619 10.2882 23.267 10.2416 23.3445 10.1585C23.4219 10.0755 23.4655 9.96288 23.4655 9.84546C23.4654 9.76775 23.4462 9.69143 23.4099 9.62417C23.3736 9.55691 23.3214 9.50108 23.2585 9.4623L21.8676 8.64411L23.2589 7.82659C23.3217 7.78781 23.3736 7.7313 23.4099 7.66404C23.4463 7.59678 23.4654 7.52046 23.4655 7.44275C23.4655 7.32533 23.422 7.21272 23.3445 7.12969C23.2671 7.04666 23.1619 7.00001 23.0523 7ZM11.7735 7.237C11.587 7.237 11.4022 7.27637 11.2299 7.35286C11.0575 7.42936 10.9009 7.54148 10.769 7.68283C10.6371 7.82418 10.5324 7.992 10.461 8.17668C10.3897 8.36137 10.3529 8.55932 10.3529 8.75922C10.3529 8.95914 10.3896 9.15709 10.461 9.34179C10.5324 9.52648 10.6371 9.6943 10.769 9.83566C10.9009 9.97702 11.0575 10.0891 11.2299 10.1656C11.4022 10.2421 11.587 10.2815 11.7735 10.2815C11.9601 10.2815 12.1448 10.2421 12.3172 10.1656C12.4895 10.0891 12.6461 9.97699 12.778 9.83564C12.9099 9.69428 13.0146 9.52646 13.086 9.34177C13.1574 9.15708 13.1941 8.95913 13.1941 8.75922C13.1941 8.35551 13.0444 7.96833 12.778 7.68286C12.5116 7.39739 12.1503 7.23701 11.7735 7.237Z" fill="#BDBDBD"/>
<path d="M12.0683 11.5459C11.6864 11.5459 11.32 11.7068 11.0499 11.9931C10.7798 12.2795 10.6281 12.6679 10.6281 13.0728C10.6285 13.1861 10.6408 13.2989 10.6647 13.4093L10.6616 13.41L12.7042 22.2379L12.7081 22.2369C12.7908 22.5602 12.9715 22.8457 13.2224 23.0494C13.4733 23.2531 13.7803 23.3637 14.0963 23.3641C14.4019 23.3637 14.6995 23.2603 14.946 23.0687C15.1925 22.8772 15.3751 22.6075 15.4675 22.2987L15.4693 22.3081L16.9917 17.7014L18.5142 22.3081L18.516 22.2987C18.6084 22.6075 18.791 22.8772 19.0375 23.0687C19.284 23.2603 19.5816 23.3637 19.8872 23.3641C20.2032 23.3637 20.5102 23.2531 20.7611 23.0494C21.012 22.8457 21.1927 22.5602 21.2754 22.2369L21.2793 22.2379L23.3219 13.41L23.3188 13.4093C23.3427 13.2989 23.355 13.1861 23.3554 13.0728C23.3554 12.6679 23.2036 12.2795 22.9336 11.9931C22.6635 11.7068 22.2971 11.5459 21.9152 11.5459C21.573 11.5464 21.2422 11.6759 20.982 11.9114C20.7218 12.1469 20.5491 12.4729 20.4949 12.8311L20.4916 12.8304L19.6456 16.4764L18.3516 12.5574L18.3467 12.5592L18.3441 12.5524C18.3306 12.5136 18.3157 12.4754 18.2993 12.4378C18.2956 12.4289 18.2919 12.4199 18.288 12.411C18.2712 12.3743 18.2529 12.3384 18.2333 12.3032C18.2286 12.2943 18.2239 12.2855 18.219 12.2767C18.1991 12.2426 18.1779 12.2093 18.1555 12.1769C18.1496 12.168 18.1437 12.1591 18.1376 12.1504C18.1153 12.1195 18.0918 12.0895 18.0673 12.0605C18.0597 12.051 18.0519 12.0417 18.044 12.0324C18.0194 12.0047 17.9938 11.9781 17.9674 11.9524C17.9586 11.9436 17.9497 11.9348 17.9407 11.9262C17.9143 11.9019 17.8869 11.8785 17.8589 11.8563C17.8483 11.8476 17.8377 11.839 17.8269 11.8305C17.7996 11.8102 17.7716 11.7908 17.743 11.7725C17.7303 11.764 17.7175 11.7556 17.7045 11.7475C17.6765 11.7309 17.6481 11.7153 17.6191 11.7007C17.6046 11.6929 17.59 11.6854 17.5753 11.6782C17.5475 11.6654 17.5193 11.6535 17.4907 11.6426C17.4737 11.6356 17.4567 11.629 17.4395 11.6227C17.4117 11.6134 17.3836 11.6049 17.3553 11.5974C17.3371 11.592 17.3188 11.5871 17.3003 11.5825C17.2728 11.5764 17.2451 11.5711 17.2173 11.5666C17.1973 11.563 17.1772 11.5597 17.1571 11.557C17.131 11.5541 17.1049 11.5519 17.0787 11.5505C17.0499 11.5481 17.021 11.5465 16.9921 11.5459C16.9625 11.5465 16.9323 11.5481 16.9029 11.5507C16.8778 11.5521 16.8527 11.5541 16.8277 11.5569C16.806 11.5598 16.7844 11.5633 16.7629 11.5673C16.7366 11.5715 16.7104 11.5765 16.6843 11.5822C16.665 11.587 16.6457 11.5922 16.6266 11.5978C16.5988 11.6053 16.5713 11.6136 16.544 11.6227C16.5268 11.629 16.5097 11.6356 16.4928 11.6426C16.4642 11.6535 16.436 11.6654 16.4081 11.6782C16.3934 11.6854 16.3788 11.6929 16.3644 11.7007C16.3355 11.7152 16.307 11.7308 16.2791 11.7474C16.2657 11.7558 16.2525 11.7644 16.2394 11.7733C16.2113 11.7912 16.1839 11.8102 16.1571 11.8301C16.1458 11.8389 16.1347 11.8479 16.1236 11.8571C16.0959 11.8791 16.0689 11.9021 16.0427 11.9262C16.0337 11.9348 16.0249 11.9436 16.0161 11.9524C15.9897 11.978 15.9642 12.0047 15.9396 12.0323C15.9315 12.0418 15.9235 12.0515 15.9156 12.0612C15.8914 12.0898 15.8683 12.1194 15.8462 12.1499C15.8398 12.1591 15.8336 12.1684 15.8274 12.1777C15.8053 12.2098 15.7843 12.2428 15.7645 12.2766C15.7595 12.2856 15.7546 12.2947 15.7498 12.3038C15.7304 12.3387 15.7124 12.3743 15.6957 12.4107C15.6917 12.4199 15.6877 12.4292 15.6839 12.4385C15.6676 12.4758 15.6528 12.5138 15.6394 12.5523L15.6367 12.5592L15.6319 12.5574L14.3378 16.4764L13.4918 12.8304L13.4885 12.8311C13.4344 12.4729 13.2617 12.1469 13.0015 11.9114C12.7412 11.6759 12.4105 11.5464 12.0683 11.5459Z" fill="#FBC509"/>
<path d="M11.5372 24.812C11.5373 24.514 11.7506 24.2724 12.0139 24.2725C12.1144 24.2727 12.2123 24.3089 12.2936 24.3759L12.3352 24.4057C12.3352 24.4057 14.4059 25.9773 16.9918 25.9292C19.5777 25.9773 21.6484 24.4057 21.6484 24.4057L21.69 24.3759C21.7712 24.3089 21.8692 24.2728 21.9697 24.2725C22.2329 24.2724 22.4463 24.514 22.4463 24.812C22.4462 25.0177 22.3428 25.2055 22.1797 25.2961C19.4186 27.1654 16.9918 26.9957 16.9918 26.9957C16.9918 26.9957 14.565 27.1654 11.8038 25.2961C11.6408 25.2055 11.5373 25.0177 11.5372 24.812Z" fill="#BDBDBD"/>
</svg>
